<svg xmlns="http://www.w3.org/2000/svg" width="108.57" height="15.966" viewBox="0 0 108.57 15.966">
  <g id="Group_64" data-name="Group 64" transform="translate(0)">
    <g id="star" transform="translate(0 0)">
      <g id="Group_48" data-name="Group 48">
        <path id="Path_15" data-name="Path 15" d="M16.714,17.859a.49.49,0,0,0-.4-.334l-5.189-.754-2.321-4.7a.49.49,0,0,0-.879,0l-2.321,4.7L.42,17.525a.49.49,0,0,0-.272.836L3.9,22.021l-.886,5.168a.49.49,0,0,0,.711.517l4.641-2.44,4.641,2.44a.49.49,0,0,0,.712-.517l-.886-5.168,3.755-3.66A.49.49,0,0,0,16.714,17.859Z" transform="translate(0 -11.796)" fill="#37847f"/>
      </g>
    </g>
    <g id="star-2" data-name="star" transform="translate(22.958 0)">
      <g id="Group_48-2" data-name="Group 48" transform="translate(0)">
        <path id="Path_15-2" data-name="Path 15" d="M16.714,17.859a.49.49,0,0,0-.4-.334l-5.189-.754-2.321-4.7a.49.49,0,0,0-.879,0l-2.321,4.7L.42,17.525a.49.49,0,0,0-.272.836L3.9,22.021l-.886,5.168a.49.49,0,0,0,.711.517l4.641-2.44,4.641,2.44a.49.49,0,0,0,.712-.517l-.886-5.168,3.755-3.66A.49.49,0,0,0,16.714,17.859Z" transform="translate(0 -11.796)" fill="#37847f"/>
      </g>
    </g>
    <g id="star-3" data-name="star" transform="translate(45.916 0)">
      <g id="Group_48-3" data-name="Group 48" transform="translate(0)">
        <path id="Path_15-3" data-name="Path 15" d="M16.714,17.859a.49.49,0,0,0-.4-.334l-5.189-.754-2.321-4.7a.49.49,0,0,0-.879,0l-2.321,4.7L.42,17.525a.49.49,0,0,0-.272.836L3.9,22.021l-.886,5.168a.49.49,0,0,0,.711.517l4.641-2.44,4.641,2.44a.49.49,0,0,0,.712-.517l-.886-5.168,3.755-3.66A.49.49,0,0,0,16.714,17.859Z" transform="translate(0 -11.796)" fill="#37847f"/>
      </g>
    </g>
    <g id="star-4" data-name="star" transform="translate(68.874 0)">
      <g id="Group_48-4" data-name="Group 48" transform="translate(0)">
        <path id="Path_15-4" data-name="Path 15" d="M16.714,17.859a.49.49,0,0,0-.4-.334l-5.189-.754-2.321-4.7a.49.49,0,0,0-.879,0l-2.321,4.7L.42,17.525a.49.49,0,0,0-.272.836L3.9,22.021l-.886,5.168a.49.49,0,0,0,.711.517l4.641-2.44,4.641,2.44a.49.49,0,0,0,.712-.517l-.886-5.168,3.755-3.66A.49.49,0,0,0,16.714,17.859Z" transform="translate(0 -11.796)" fill="#37847f"/>
      </g>
    </g>
    <g id="star-5" data-name="star" transform="translate(91.832 0)">
      <g id="Group_48-5" data-name="Group 48" transform="translate(0)">
        <path id="Path_15-5" data-name="Path 15" d="M16.714,17.859a.49.49,0,0,0-.4-.334l-5.189-.754-2.321-4.7a.49.49,0,0,0-.879,0l-2.321,4.7L.42,17.525a.49.49,0,0,0-.272.836L3.9,22.021l-.886,5.168a.49.49,0,0,0,.711.517l4.641-2.44,4.641,2.44a.49.49,0,0,0,.712-.517l-.886-5.168,3.755-3.66A.49.49,0,0,0,16.714,17.859Z" transform="translate(0 -11.796)" fill="#37847f"/>
      </g>
    </g>
  </g>
</svg>
