<svg xmlns="http://www.w3.org/2000/svg" width="455" height="118" viewBox="0 0 455 118">
  <g id="Group_392" data-name="Group 392" transform="translate(-924 -3227)">
    <g id="Group_257" data-name="Group 257">
      <rect id="Rectangle_108" data-name="Rectangle 108" width="89" height="89" rx="10" transform="translate(924 3227)" fill="#2b3231"/>
      <rect id="Rectangle_121" data-name="Rectangle 121" width="89" height="89" rx="10" transform="translate(1045 3227)" fill="#2b3231"/>
      <rect id="Rectangle_134" data-name="Rectangle 134" width="89" height="89" rx="10" transform="translate(1167 3227)" fill="#2b3231"/>
      <rect id="Rectangle_147" data-name="Rectangle 147" width="89" height="89" rx="10" transform="translate(1290 3227)" fill="#2b3231"/>
      <text id="Normal" transform="translate(968 3338)" fill="#fff" font-size="14" font-family="Poppins-Regular, Poppins"><tspan x="-25.403" y="0">Normal</tspan></text>
      <text id="Bruxism_1" data-name="Bruxism 1" transform="translate(1089 3338)" fill="#fff" font-size="14" font-family="Poppins-Regular, Poppins"><tspan x="-31.458" y="0">Bruxism 1</tspan></text>
      <text id="Bruxism_2" data-name="Bruxism 2" transform="translate(1211 3338)" fill="#fff" font-size="14" font-family="Poppins-Regular, Poppins"><tspan x="-33.264" y="0">Bruxism 2</tspan></text>
      <text id="Bruxism_3" data-name="Bruxism 3" transform="translate(1334 3338)" fill="#fff" font-size="14" font-family="Poppins-Regular, Poppins"><tspan x="-33.334" y="0">Bruxism 3</tspan></text>
      <g id="Group_233" data-name="Group 233" transform="translate(350.115 2893.637)">
        <g id="Group_230" data-name="Group 230" transform="translate(590.399 379.129)">
          <g id="Group_229" data-name="Group 229" transform="translate(3.336)">
            <path id="Rectangle_109" data-name="Rectangle 109" d="M4.61,0h0a4.61,4.61,0,0,1,4.61,4.61v5.884a3.073,3.073,0,0,1-3.073,3.073H3.073A3.073,3.073,0,0,1,0,10.494V4.61A4.61,4.61,0,0,1,4.61,0Z" transform="translate(33.917 13.567) rotate(180)" fill="none" stroke="#37847f" stroke-miterlimit="10" stroke-width="2"/>
            <path id="Rectangle_110" data-name="Rectangle 110" d="M4.61,0h0a4.61,4.61,0,0,1,4.61,4.61v5.884a3.073,3.073,0,0,1-3.073,3.073H3.073A3.073,3.073,0,0,1,0,10.494V4.61A4.61,4.61,0,0,1,4.61,0Z" transform="translate(24.698 13.567) rotate(180)" fill="none" stroke="#37847f" stroke-miterlimit="10" stroke-width="2"/>
            <path id="Rectangle_111" data-name="Rectangle 111" d="M3.973,0h0A3.973,3.973,0,0,1,7.945,3.973V9.043A2.648,2.648,0,0,1,5.3,11.692H2.648A2.648,2.648,0,0,1,0,9.043V3.973A3.973,3.973,0,0,1,3.973,0Z" transform="translate(15.441 11.692) rotate(180)" fill="none" stroke="#37847f" stroke-miterlimit="10" stroke-width="2"/>
            <path id="Rectangle_112" data-name="Rectangle 112" d="M3.71,0h0a3.71,3.71,0,0,1,3.71,3.71V8a2.474,2.474,0,0,1-2.474,2.474H2.474A2.474,2.474,0,0,1,0,8V3.71A3.71,3.71,0,0,1,3.71,0Z" transform="translate(7.421 10.478) rotate(180)" fill="none" stroke="#37847f" stroke-miterlimit="10" stroke-width="2"/>
            <path id="Rectangle_113" data-name="Rectangle 113" d="M3.71,0h0a3.71,3.71,0,0,1,3.71,3.71V8a2.474,2.474,0,0,1-2.474,2.474H2.474A2.474,2.474,0,0,1,0,8V3.71A3.71,3.71,0,0,1,3.71,0Z" transform="translate(49.208 10.478) rotate(180)" fill="none" stroke="#37847f" stroke-miterlimit="10" stroke-width="2"/>
            <path id="Rectangle_114" data-name="Rectangle 114" d="M3.973,0h0A3.973,3.973,0,0,1,7.945,3.973V9.043A2.648,2.648,0,0,1,5.3,11.692H2.648A2.648,2.648,0,0,1,0,9.043V3.973A3.973,3.973,0,0,1,3.973,0Z" transform="translate(41.787 11.692) rotate(-180)" fill="none" stroke="#37847f" stroke-miterlimit="10" stroke-width="2"/>
          </g>
          <path id="Path_107" data-name="Path 107" d="M642.649,392.064a4.853,4.853,0,0,1,3.217,4.555v3.716a1.121,1.121,0,0,1-1.118,1.118H591.517a1.121,1.121,0,0,1-1.118-1.118v-3.716a4.855,4.855,0,0,1,3.595-4.673" transform="translate(-590.399 -383.813)" fill="none" stroke="#37847f" stroke-miterlimit="10" stroke-width="2"/>
        </g>
        <g id="Group_232" data-name="Group 232" transform="translate(590.399 358.479)">
          <g id="Group_231" data-name="Group 231" transform="translate(3.336 4.685)">
            <path id="Rectangle_115" data-name="Rectangle 115" d="M4.61,0h0a4.61,4.61,0,0,1,4.61,4.61v5.884a3.073,3.073,0,0,1-3.073,3.073H3.073A3.073,3.073,0,0,1,0,10.494V4.61A4.61,4.61,0,0,1,4.61,0Z" transform="translate(15.291)" fill="none" stroke="#37847f" stroke-miterlimit="10" stroke-width="2"/>
            <path id="Rectangle_116" data-name="Rectangle 116" d="M4.61,0h0a4.61,4.61,0,0,1,4.61,4.61v5.884a3.073,3.073,0,0,1-3.073,3.073H3.073A3.073,3.073,0,0,1,0,10.494V4.61A4.61,4.61,0,0,1,4.61,0Z" transform="translate(24.51)" fill="none" stroke="#37847f" stroke-miterlimit="10" stroke-width="2"/>
            <path id="Rectangle_117" data-name="Rectangle 117" d="M3.973,0h0A3.973,3.973,0,0,1,7.945,3.973V9.043A2.648,2.648,0,0,1,5.3,11.692H2.648A2.648,2.648,0,0,1,0,9.043V3.973A3.973,3.973,0,0,1,3.973,0Z" transform="translate(33.767)" fill="none" stroke="#37847f" stroke-miterlimit="10" stroke-width="2"/>
            <path id="Rectangle_118" data-name="Rectangle 118" d="M3.71,0h0a3.71,3.71,0,0,1,3.71,3.71V8a2.474,2.474,0,0,1-2.474,2.474H2.474A2.474,2.474,0,0,1,0,8V3.71A3.71,3.71,0,0,1,3.71,0Z" transform="translate(41.787)" fill="none" stroke="#37847f" stroke-miterlimit="10" stroke-width="2"/>
            <path id="Rectangle_119" data-name="Rectangle 119" d="M3.71,0h0a3.71,3.71,0,0,1,3.71,3.71V8a2.474,2.474,0,0,1-2.474,2.474H2.474A2.474,2.474,0,0,1,0,8V3.71A3.71,3.71,0,0,1,3.71,0Z" fill="none" stroke="#37847f" stroke-miterlimit="10" stroke-width="2"/>
            <path id="Rectangle_120" data-name="Rectangle 120" d="M3.973,0h0A3.973,3.973,0,0,1,7.945,3.973V9.043A2.648,2.648,0,0,1,5.3,11.692H2.648A2.648,2.648,0,0,1,0,9.043V3.973A3.973,3.973,0,0,1,3.973,0Z" transform="translate(7.421)" fill="none" stroke="#37847f" stroke-miterlimit="10" stroke-width="2"/>
          </g>
          <path id="Path_108" data-name="Path 108" d="M593.615,367.868a4.854,4.854,0,0,1-3.216-4.555V359.6a1.121,1.121,0,0,1,1.118-1.118h53.231a1.121,1.121,0,0,1,1.118,1.118v3.716a4.851,4.851,0,0,1-2.848,4.405" transform="translate(-590.399 -358.479)" fill="none" stroke="#37847f" stroke-miterlimit="10" stroke-width="2"/>
        </g>
      </g>
      <g id="Group_239" data-name="Group 239" transform="translate(359.81 2891.637)">
        <g id="Group_236" data-name="Group 236" transform="translate(700.399 382.1)">
          <g id="Group_235" data-name="Group 235" transform="translate(3.492)">
            <path id="Rectangle_122" data-name="Rectangle 122" d="M4.827,0h0A4.827,4.827,0,0,1,9.653,4.827v4.36A3.218,3.218,0,0,1,6.435,12.4H3.218A3.218,3.218,0,0,1,0,9.186V4.827A4.827,4.827,0,0,1,4.827,0Z" transform="translate(35.512 12.404) rotate(180)" fill="none" stroke="#37847f" stroke-miterlimit="10" stroke-width="2"/>
            <path id="Rectangle_123" data-name="Rectangle 123" d="M4.827,0h0A4.827,4.827,0,0,1,9.653,4.827v4.36A3.218,3.218,0,0,1,6.435,12.4H3.218A3.218,3.218,0,0,1,0,9.186V4.827A4.827,4.827,0,0,1,4.827,0Z" transform="translate(25.859 12.404) rotate(180)" fill="none" stroke="#37847f" stroke-miterlimit="10" stroke-width="2"/>
            <path id="Rectangle_124" data-name="Rectangle 124" d="M4.159,0h0A4.159,4.159,0,0,1,8.319,4.159V7.668a2.773,2.773,0,0,1-2.773,2.773H2.773A2.773,2.773,0,0,1,0,7.668V4.159A4.159,4.159,0,0,1,4.159,0Z" transform="translate(16.167 10.441) rotate(180)" fill="none" stroke="#37847f" stroke-miterlimit="10" stroke-width="2"/>
            <path id="Rectangle_125" data-name="Rectangle 125" d="M3.885,0h0A3.885,3.885,0,0,1,7.77,3.885v2.7A2.59,2.59,0,0,1,5.18,9.17H2.59A2.59,2.59,0,0,1,0,6.58v-2.7A3.885,3.885,0,0,1,3.885,0Z" transform="translate(7.77 9.17) rotate(180)" fill="none" stroke="#37847f" stroke-miterlimit="10" stroke-width="2"/>
            <path id="Rectangle_126" data-name="Rectangle 126" d="M3.885,0h0A3.885,3.885,0,0,1,7.77,3.885v2.7A2.59,2.59,0,0,1,5.18,9.17H2.59A2.59,2.59,0,0,1,0,6.58v-2.7A3.885,3.885,0,0,1,3.885,0Z" transform="translate(51.523 9.17) rotate(180)" fill="none" stroke="#37847f" stroke-miterlimit="10" stroke-width="2"/>
            <path id="Rectangle_127" data-name="Rectangle 127" d="M4.159,0h0A4.159,4.159,0,0,1,8.319,4.159V7.668a2.773,2.773,0,0,1-2.773,2.773H2.773A2.773,2.773,0,0,1,0,7.668V4.159A4.159,4.159,0,0,1,4.159,0Z" transform="translate(43.753 10.441) rotate(180)" fill="none" stroke="#37847f" stroke-miterlimit="10" stroke-width="2"/>
          </g>
          <path id="Path_109" data-name="Path 109" d="M755.107,392.069a5.081,5.081,0,0,1,3.368,4.769v3.891A1.174,1.174,0,0,1,757.3,401.9H701.57a1.174,1.174,0,0,1-1.171-1.171v-3.891a5.083,5.083,0,0,1,3.764-4.892" transform="translate(-700.399 -385.232)" fill="none" stroke="#37847f" stroke-miterlimit="10" stroke-width="2"/>
        </g>
        <g id="Group_238" data-name="Group 238" transform="translate(700.399 360.479)">
          <g id="Group_237" data-name="Group 237" transform="translate(3.492 4.905)">
            <path id="Rectangle_128" data-name="Rectangle 128" d="M4.827,0h0A4.827,4.827,0,0,1,9.653,4.827v4.36A3.218,3.218,0,0,1,6.435,12.4H3.218A3.218,3.218,0,0,1,0,9.186V4.827A4.827,4.827,0,0,1,4.827,0Z" transform="translate(16.01)" fill="none" stroke="#37847f" stroke-miterlimit="10" stroke-width="2"/>
            <path id="Rectangle_129" data-name="Rectangle 129" d="M4.827,0h0A4.827,4.827,0,0,1,9.653,4.827v4.36A3.218,3.218,0,0,1,6.435,12.4H3.218A3.218,3.218,0,0,1,0,9.186V4.827A4.827,4.827,0,0,1,4.827,0Z" transform="translate(25.663)" fill="none" stroke="#37847f" stroke-miterlimit="10" stroke-width="2"/>
            <path id="Rectangle_130" data-name="Rectangle 130" d="M4.159,0h0A4.159,4.159,0,0,1,8.319,4.159V7.668a2.773,2.773,0,0,1-2.773,2.773H2.773A2.773,2.773,0,0,1,0,7.668V4.159A4.159,4.159,0,0,1,4.159,0Z" transform="translate(35.355)" fill="none" stroke="#37847f" stroke-miterlimit="10" stroke-width="2"/>
            <path id="Rectangle_131" data-name="Rectangle 131" d="M3.885,0h0A3.885,3.885,0,0,1,7.77,3.885v2.7A2.59,2.59,0,0,1,5.18,9.17H2.59A2.59,2.59,0,0,1,0,6.58v-2.7A3.885,3.885,0,0,1,3.885,0Z" transform="translate(43.753)" fill="none" stroke="#37847f" stroke-miterlimit="10" stroke-width="2"/>
            <path id="Rectangle_132" data-name="Rectangle 132" d="M3.885,0h0A3.885,3.885,0,0,1,7.77,3.885v2.7A2.59,2.59,0,0,1,5.18,9.17H2.59A2.59,2.59,0,0,1,0,6.58v-2.7A3.885,3.885,0,0,1,3.885,0Z" fill="none" stroke="#37847f" stroke-miterlimit="10" stroke-width="2"/>
            <path id="Rectangle_133" data-name="Rectangle 133" d="M4.159,0h0A4.159,4.159,0,0,1,8.319,4.159V7.668a2.773,2.773,0,0,1-2.773,2.773H2.773A2.773,2.773,0,0,1,0,7.668V4.159A4.159,4.159,0,0,1,4.159,0Z" transform="translate(7.77)" fill="none" stroke="#37847f" stroke-miterlimit="10" stroke-width="2"/>
          </g>
          <path id="Path_110" data-name="Path 110" d="M703.767,370.31a5.082,5.082,0,0,1-3.368-4.769V361.65a1.174,1.174,0,0,1,1.171-1.171H757.3a1.174,1.174,0,0,1,1.171,1.171v3.891a5.079,5.079,0,0,1-2.982,4.612" transform="translate(-700.399 -360.479)" fill="none" stroke="#37847f" stroke-miterlimit="10" stroke-width="2"/>
        </g>
      </g>
      <g id="Group_252" data-name="Group 252" transform="translate(379.476 2895.437)">
        <g id="Group_249" data-name="Group 249" transform="translate(802.524 377.966)">
          <g id="Group_248" data-name="Group 248" transform="translate(3.505)">
            <path id="Rectangle_160" data-name="Rectangle 160" d="M4.844,0h0A4.844,4.844,0,0,1,9.688,4.844v1.67A3.229,3.229,0,0,1,6.459,9.743H3.229A3.229,3.229,0,0,1,0,6.514V4.844A4.844,4.844,0,0,1,4.844,0Z" transform="translate(35.641 9.743) rotate(-180)" fill="none" stroke="#37847f" stroke-miterlimit="10" stroke-width="2"/>
            <path id="Rectangle_161" data-name="Rectangle 161" d="M4.844,0h0A4.844,4.844,0,0,1,9.688,4.844v1.67A3.229,3.229,0,0,1,6.459,9.743H3.229A3.229,3.229,0,0,1,0,6.514V4.844A4.844,4.844,0,0,1,4.844,0Z" transform="translate(25.953 9.743) rotate(180)" fill="none" stroke="#37847f" stroke-miterlimit="10" stroke-width="2"/>
            <path id="Rectangle_162" data-name="Rectangle 162" d="M4.174,0h0A4.174,4.174,0,0,1,8.349,4.174V4.99A2.783,2.783,0,0,1,5.566,7.773H2.783A2.783,2.783,0,0,1,0,4.99V4.174A4.174,4.174,0,0,1,4.174,0Z" transform="translate(16.226 7.773) rotate(-180)" fill="none" stroke="#37847f" stroke-miterlimit="10" stroke-width="2"/>
            <path id="Path_115" data-name="Path 115" d="M809,379.927h2.6a2.681,2.681,0,0,1,2.684,2.6h0a3.984,3.984,0,0,1-3.984,3.9h0a3.91,3.91,0,0,1-3.9-3.9h0A2.607,2.607,0,0,1,809,379.927Z" transform="translate(-806.402 -379.927)" fill="none" stroke="#37847f" stroke-miterlimit="10" stroke-width="2"/>
            <path id="Path_116" data-name="Path 116" d="M857.59,379.927h2.6a2.607,2.607,0,0,1,2.6,2.6h0a3.91,3.91,0,0,1-3.9,3.9h0a3.911,3.911,0,0,1-3.9-3.9h0A2.607,2.607,0,0,1,857.59,379.927Z" transform="translate(-811.08 -379.927)" fill="none" stroke="#37847f" stroke-miterlimit="10" stroke-width="2"/>
            <path id="Rectangle_163" data-name="Rectangle 163" d="M4.174,0h0a4.1,4.1,0,0,1,4.1,4.1v.973a2.7,2.7,0,0,1-2.7,2.7H2.783A2.783,2.783,0,0,1,0,4.99V4.174A4.174,4.174,0,0,1,4.174,0Z" transform="translate(43.911 7.773) rotate(180)" fill="none" stroke="#37847f" stroke-miterlimit="10" stroke-width="2"/>
          </g>
          <path id="Path_117" data-name="Path 117" d="M857.429,384.513a5.1,5.1,0,0,1,3.38,4.786V393.2a1.178,1.178,0,0,1-1.175,1.175H803.7a1.178,1.178,0,0,1-1.175-1.175V389.3a5.1,5.1,0,0,1,3.778-4.91" transform="translate(-802.524 -380.356)" fill="none" stroke="#37847f" stroke-miterlimit="10" stroke-width="2"/>
        </g>
        <g id="Group_251" data-name="Group 251" transform="translate(802.524 359.563)">
          <g id="Group_250" data-name="Group 250" transform="translate(3.072 4.279)">
            <path id="Path_118" data-name="Path 118" d="M830.169,373.941H826.94a3.126,3.126,0,0,1-3.151-3.237v-1.568a4.741,4.741,0,0,1,4.765-4.838h0a4.858,4.858,0,0,1,4.844,4.844v1.569A3.239,3.239,0,0,1,830.169,373.941Z" transform="translate(-807.643 -364.298)" fill="none" stroke="#37847f" stroke-miterlimit="10" stroke-width="2"/>
            <path id="Rectangle_164" data-name="Rectangle 164" d="M4.844,0h0A4.844,4.844,0,0,1,9.688,4.844V6.413A3.229,3.229,0,0,1,6.459,9.642H3.229A3.229,3.229,0,0,1,0,6.413V4.844A4.844,4.844,0,0,1,4.844,0Z" transform="translate(25.756 0)" fill="none" stroke="#37847f" stroke-miterlimit="10" stroke-width="2"/>
            <path id="Rectangle_165" data-name="Rectangle 165" d="M4.174,0h0A4.174,4.174,0,0,1,8.349,4.174v.714A2.783,2.783,0,0,1,5.566,7.672H2.783A2.783,2.783,0,0,1,0,4.889V4.174A4.174,4.174,0,0,1,4.174,0Z" transform="translate(35.483 1.971)" fill="none" stroke="#37847f" stroke-miterlimit="10" stroke-width="2"/>
            <path id="Path_119" data-name="Path 119" d="M859.7,374.287h-2.6a2.722,2.722,0,0,1-2.673-2.6v-.9c.074-2.145,1.828-2.9,3.973-2.9h0c2.145,0,3.9.755,3.9,2.9v.9A2.607,2.607,0,0,1,859.7,374.287Z" transform="translate(-810.593 -364.644)" fill="none" stroke="#37847f" stroke-miterlimit="10" stroke-width="2"/>
            <path id="Rectangle_166" data-name="Rectangle 166" d="M3.9,0H4A3.8,3.8,0,0,1,7.8,3.8v0A2.6,2.6,0,0,1,5.2,6.4H2.5A2.5,2.5,0,0,1,0,3.9v0A3.9,3.9,0,0,1,3.9,0Z" transform="translate(0 3.246)" fill="none" stroke="#37847f" stroke-miterlimit="10" stroke-width="2"/>
            <path id="Rectangle_167" data-name="Rectangle 167" d="M4.174,0h0A4.174,4.174,0,0,1,8.349,4.174v.714A2.783,2.783,0,0,1,5.566,7.672H2.783A2.783,2.783,0,0,1,0,4.889V4.174A4.174,4.174,0,0,1,4.174,0Z" transform="translate(7.798 1.971)" fill="none" stroke="#37847f" stroke-miterlimit="10" stroke-width="2"/>
          </g>
          <path id="Path_120" data-name="Path 120" d="M805.9,369.429a5.1,5.1,0,0,1-3.38-4.785v-3.906a1.178,1.178,0,0,1,1.175-1.175h55.935a1.178,1.178,0,0,1,1.175,1.175v3.906a5.1,5.1,0,0,1-3.778,4.909" transform="translate(-802.524 -359.563)" fill="none" stroke="#37847f" stroke-miterlimit="10" stroke-width="2"/>
        </g>
      </g>
      <g id="Group_255" data-name="Group 255" transform="translate(394.908 2898.521)">
        <g id="Group_253" data-name="Group 253" transform="translate(910.092 358.479)">
          <path id="Rectangle_168" data-name="Rectangle 168" d="M4.717,0h.169A4.717,4.717,0,0,1,9.6,4.717v0A3.145,3.145,0,0,1,6.459,7.861H3.145A3.145,3.145,0,0,1,0,4.717v0A4.717,4.717,0,0,1,4.717,0Z" transform="translate(19.658 4.923)" fill="none" stroke="#37847f" stroke-miterlimit="10" stroke-width="2"/>
          <path id="Rectangle_169" data-name="Rectangle 169" d="M4.717,0h.254A4.717,4.717,0,0,1,9.688,4.717v0A3.145,3.145,0,0,1,6.543,7.861h-3.4A3.145,3.145,0,0,1,0,4.717v0A4.717,4.717,0,0,1,4.717,0Z" transform="translate(29.261 4.923)" fill="none" stroke="#37847f" stroke-miterlimit="10" stroke-width="2"/>
          <path id="Rectangle_170" data-name="Rectangle 170" d="M4.174,0h0A4.174,4.174,0,0,1,8.349,4.174v.759A2.783,2.783,0,0,1,5.566,7.716H2.783A2.783,2.783,0,0,1,0,4.933V4.174A4.174,4.174,0,0,1,4.174,0Z" transform="translate(38.988 4.923)" fill="none" stroke="#37847f" stroke-miterlimit="10" stroke-width="2"/>
          <path id="Rectangle_171" data-name="Rectangle 171" d="M3.9,0h0A3.9,3.9,0,0,1,7.8,3.9v.9A2.6,2.6,0,0,1,5.2,7.4H2.6A2.6,2.6,0,0,1,0,4.8V3.9A3.9,3.9,0,0,1,3.9,0Z" transform="translate(47.416 4.923)" fill="none" stroke="#37847f" stroke-miterlimit="10" stroke-width="2"/>
          <path id="Rectangle_172" data-name="Rectangle 172" d="M3.9,0h0A3.9,3.9,0,0,1,7.8,3.9v.9A2.6,2.6,0,0,1,5.2,7.4H2.6A2.6,2.6,0,0,1,0,4.8V3.9A3.9,3.9,0,0,1,3.9,0Z" transform="translate(3.505 4.923)" fill="none" stroke="#37847f" stroke-miterlimit="10" stroke-width="2"/>
          <path id="Rectangle_173" data-name="Rectangle 173" d="M4.174,0h0A4.174,4.174,0,0,1,8.349,4.174v.759A2.783,2.783,0,0,1,5.566,7.716H2.783A2.783,2.783,0,0,1,0,4.933V4.174A4.174,4.174,0,0,1,4.174,0Z" transform="translate(11.303 4.923)" fill="none" stroke="#37847f" stroke-miterlimit="10" stroke-width="2"/>
          <path id="Path_121" data-name="Path 121" d="M913.472,368.345a5.1,5.1,0,0,1-3.38-4.786v-3.905a1.178,1.178,0,0,1,1.175-1.175H967.2a1.178,1.178,0,0,1,1.175,1.175v3.905a5.1,5.1,0,0,1-2.992,4.629" transform="translate(-910.092 -358.479)" fill="none" stroke="#37847f" stroke-miterlimit="10" stroke-width="2"/>
        </g>
        <g id="Group_254" data-name="Group 254" transform="translate(910.092 374.784)">
          <path id="Rectangle_174" data-name="Rectangle 174" d="M4.717,0h.254A4.717,4.717,0,0,1,9.688,4.717v0A3.145,3.145,0,0,1,6.543,7.861h-3.4A3.145,3.145,0,0,1,0,4.717v0A4.717,4.717,0,0,1,4.717,0Z" transform="translate(38.712 7.861) rotate(-180)" fill="none" stroke="#37847f" stroke-miterlimit="10" stroke-width="2"/>
          <path id="Rectangle_175" data-name="Rectangle 175" d="M4.717,0h.254A4.717,4.717,0,0,1,9.688,4.717v0A3.145,3.145,0,0,1,6.543,7.861h-3.4A3.145,3.145,0,0,1,0,4.717v0A4.717,4.717,0,0,1,4.717,0Z" transform="translate(29.025 7.861) rotate(180)" fill="none" stroke="#37847f" stroke-miterlimit="10" stroke-width="2"/>
          <path id="Rectangle_176" data-name="Rectangle 176" d="M4.174,0h0A4.174,4.174,0,0,1,8.349,4.174v.759A2.783,2.783,0,0,1,5.566,7.716H2.783A2.783,2.783,0,0,1,0,4.933V4.174A4.174,4.174,0,0,1,4.174,0Z" transform="translate(19.297 7.861) rotate(180)" fill="none" stroke="#37847f" stroke-miterlimit="10" stroke-width="2"/>
          <path id="Rectangle_177" data-name="Rectangle 177" d="M3.9,0h0A3.9,3.9,0,0,1,7.8,3.9v.9A2.6,2.6,0,0,1,5.2,7.4H2.6A2.6,2.6,0,0,1,0,4.8V3.9A3.9,3.9,0,0,1,3.9,0Z" transform="translate(10.87 7.861) rotate(-180)" fill="none" stroke="#37847f" stroke-miterlimit="10" stroke-width="2"/>
          <path id="Rectangle_178" data-name="Rectangle 178" d="M3.9,0h0A3.9,3.9,0,0,1,7.8,3.9v.9A2.6,2.6,0,0,1,5.2,7.4H2.6A2.6,2.6,0,0,1,0,4.8V3.9A3.9,3.9,0,0,1,3.9,0Z" transform="translate(54.78 7.861) rotate(180)" fill="none" stroke="#37847f" stroke-miterlimit="10" stroke-width="2"/>
          <path id="Rectangle_179" data-name="Rectangle 179" d="M4.174,0h0A4.174,4.174,0,0,1,8.349,4.174v.759A2.783,2.783,0,0,1,5.566,7.716H2.783A2.783,2.783,0,0,1,0,4.933V4.174A4.174,4.174,0,0,1,4.174,0Z" transform="translate(46.983 7.861) rotate(180)" fill="none" stroke="#37847f" stroke-miterlimit="10" stroke-width="2"/>
          <path id="Path_122" data-name="Path 122" d="M965,379.75a5.1,5.1,0,0,1,3.38,4.785v3.906a1.178,1.178,0,0,1-1.175,1.175H911.267a1.178,1.178,0,0,1-1.175-1.175v-3.906a5.1,5.1,0,0,1,2.993-4.629" transform="translate(-910.092 -376.831)" fill="none" stroke="#37847f" stroke-miterlimit="10" stroke-width="2"/>
        </g>
      </g>
    </g>
  </g>
</svg>
