<svg xmlns="http://www.w3.org/2000/svg" viewBox="0 0 109 109">
  <defs>
    <style>
      .a {
        fill: #fff;
      }

      .b {
        fill: #37847f;
      }
    </style>
  </defs>
  <title>bruxor-package</title>
  <rect class="a" width="109" height="109" rx="19" ry="19"/>
  <g>
    <path class="b" d="M83.2,44.3h-.1v-.4A2.9,2.9,0,0,0,81.8,42L55.6,25.4a3.2,3.2,0,0,0-3,0l-4.7,3a1,1,0,0,0-.3,1.4,1.1,1.1,0,0,0,1.4.3l4.6-3a1.4,1.4,0,0,1,.9,0l13.9,8.8L40.5,53.7,27.4,45.1a1,1,0,0,1-.4-.5v-.3c0-.1.1-.2.1-.3l.3-.3,15.1-9.5a1,1,0,0,0,.4-1.4,1.1,1.1,0,0,0-1.4-.3L26.3,42a2.4,2.4,0,0,0-.8.9,2.9,2.9,0,0,0-.5,1.3h0V59.7A2.9,2.9,0,0,0,26.2,62L52.5,80.6a3,3,0,0,0,1.6.5,3.3,3.3,0,0,0,1.6-.5L81.9,62.1a2.8,2.8,0,0,0,1.3-2.3V44.4Zm-13-7.2,10.6,6.6a.5.5,0,0,1,.3.5.6.6,0,0,1-.1.7.2.2,0,0,1-.2.2L54.5,62.2a1,1,0,0,1-.9-.1L42.4,54.9ZM27.4,60.4a.8.8,0,0,1-.4-.7V47.3L52.5,63.8l.6.3V78.6Zm53.4.1L55.1,78.6V64.1l.5-.3L81.2,47.3V59.8A1,1,0,0,1,80.8,60.5Z"/>
    <path class="b" d="M49.7,64.5,42.8,60a2,2,0,0,0-1.1-.3,1.8,1.8,0,0,0-1.8,1.8h0v5.2a1.9,1.9,0,0,0,.8,1.5l7,4.9a1.7,1.7,0,0,0,1,.3,1.8,1.8,0,0,0,1.8-1.8V66A1.8,1.8,0,0,0,49.7,64.5Zm-7.8-3Zm6.6,9.8-6.6-4.7V61.8l6.6,4.3Z"/>
  </g>
</svg>
