<?xml version="1.0" encoding="utf-8"?>
<!-- Generator: Adobe Illustrator 22.0.0, SVG Export Plug-In . SVG Version: 6.00 Build 0)  -->
<svg version="1.1" id="Layer_1" xmlns="http://www.w3.org/2000/svg" xmlns:xlink="http://www.w3.org/1999/xlink" x="0px" y="0px"
	 viewBox="0 0 253 497" style="enable-background:new 0 0 253 497;" xml:space="preserve">
<style type="text/css">
	.st0{fill:#FFFFFF;}
	.st1{fill:#37847F;}
	.st2{fill:#E6E6E6;}
	.st3{enable-background:new    ;}
	.st4{fill:#707070;}
	.st5{opacity:8.000000e-02;enable-background:new    ;}
	.st6{fill:none;}
</style>
<g id="Group_269" transform="translate(-93 -5271)">
	<g id="Ellipse_11" transform="translate(170 5271)">
		<g>
			<circle class="st0" cx="38.5" cy="38.5" r="38.5"/>
		</g>
		<g>
			<path class="st1" d="M38.5,77C17.3,77,0,59.7,0,38.5S17.3,0,38.5,0C59.7,0,77,17.3,77,38.5S59.7,77,38.5,77z M38.5,2
				C18.4,2,2,18.4,2,38.5S18.4,75,38.5,75S75,58.6,75,38.5S58.6,2,38.5,2z"/>
		</g>
	</g>
	<g id="Ellipse_12" transform="translate(170 5376)">
		<g>
			<circle class="st0" cx="38.5" cy="38.5" r="38.5"/>
		</g>
		<g>
			<path class="st2" d="M38.5,77C17.3,77,0,59.7,0,38.5S17.3,0,38.5,0C59.7,0,77,17.3,77,38.5S59.7,77,38.5,77z M38.5,2
				C18.4,2,2,18.4,2,38.5S18.4,75,38.5,75S75,58.6,75,38.5S58.6,2,38.5,2z"/>
		</g>
	</g>
	<g id="Ellipse_16" transform="translate(172 5481)">
		<g>
			<ellipse class="st0" cx="38" cy="38.5" rx="38" ry="38.5"/>
		</g>
		<g>
			<path class="st2" d="M38,77C17,77,0,59.7,0,38.5C0,17.3,17,0,38,0s38,17.3,38,38.5C76,59.7,59,77,38,77z M38,2
				C18.1,2,2,18.4,2,38.5S18.1,75,38,75s36-16.4,36-36.5S57.9,2,38,2z"/>
		</g>
	</g>
	<g class="st3">
		<path d="M113,5422.7c-1-0.9-1.4-2.1-1.4-3.5s0.5-2.6,1.4-3.5c1-0.9,2.1-1.4,3.5-1.4c1,0,1.9,0.2,2.7,0.7c0.8,0.5,1.4,1.2,1.7,2.1
			h-1.5c-0.6-1.1-1.5-1.6-2.9-1.6c-1.1,0-1.9,0.3-2.6,1s-1,1.6-1,2.8c0,1.1,0.3,2.1,1,2.8s1.6,1,2.6,1c0.6,0,1.2-0.1,1.7-0.4
			s0.9-0.7,1.2-1.2h1.5c-0.4,0.9-1,1.6-1.7,2.1c-0.8,0.5-1.7,0.7-2.7,0.7C115.2,5424.1,114,5423.6,113,5422.7z"/>
		<path d="M123,5424v-10.4h1.3v10.4H123z"/>
		<path d="M127.6,5414.8c-0.2,0.2-0.4,0.3-0.6,0.3s-0.4-0.1-0.6-0.3c-0.2-0.2-0.2-0.4-0.2-0.6c0-0.2,0.1-0.4,0.3-0.6
			s0.4-0.3,0.6-0.3c0.2,0,0.4,0.1,0.6,0.3s0.3,0.4,0.3,0.6C127.9,5414.5,127.8,5414.7,127.6,5414.8z M126.4,5424v-7.7h1.3v7.7H126.4
			z"/>
		<path d="M131,5416.3v1.2c0.5-0.9,1.4-1.4,2.5-1.4c0.8,0,1.6,0.3,2.1,0.8s0.9,1.4,0.9,2.4v4.5h-1.3v-4.3c0-0.8-0.2-1.4-0.6-1.8
			c-0.4-0.4-0.9-0.6-1.5-0.6c-0.7,0-1.2,0.2-1.6,0.6s-0.6,1-0.6,1.8v4.3h-1.3v-7.7H131z"/>
		<path d="M139.8,5414.8c-0.2,0.2-0.4,0.3-0.6,0.3s-0.4-0.1-0.6-0.3c-0.2-0.2-0.2-0.4-0.2-0.6c0-0.2,0.1-0.4,0.3-0.6
			s0.4-0.3,0.6-0.3c0.2,0,0.4,0.1,0.6,0.3s0.3,0.4,0.3,0.6C140,5414.5,139.9,5414.7,139.8,5414.8z M138.5,5424v-7.7h1.3v7.7H138.5z"
			/>
		<path d="M142.4,5423c-0.7-0.7-1-1.7-1-2.9c0-1.2,0.3-2.1,1-2.9c0.7-0.7,1.6-1.1,2.7-1.1c0.9,0,1.7,0.2,2.3,0.6
			c0.6,0.4,1,1,1.2,1.8h-1.4c-0.1-0.4-0.4-0.8-0.8-1c-0.4-0.3-0.8-0.4-1.3-0.4c-0.7,0-1.3,0.3-1.8,0.8c-0.4,0.5-0.7,1.2-0.7,2.2
			s0.2,1.6,0.7,2.2c0.4,0.5,1,0.8,1.8,0.8c1.1,0,1.8-0.5,2.1-1.4h1.4c-0.2,0.8-0.6,1.4-1.2,1.8c-0.6,0.4-1.3,0.7-2.2,0.7
			C144,5424.1,143.1,5423.8,142.4,5423z"/>
		<path d="M150.8,5423c-0.7-0.8-1.1-1.7-1.1-2.9c0-1.2,0.3-2.1,1-2.8c0.7-0.7,1.6-1.1,2.6-1.1c0.7,0,1.2,0.2,1.7,0.5
			c0.5,0.3,0.9,0.7,1.1,1.2v-1.5h1.3v7.7h-1.3v-1.6c-0.3,0.5-0.6,0.9-1.1,1.2c-0.5,0.3-1.1,0.5-1.7,0.5
			C152.4,5424.1,151.5,5423.8,150.8,5423z M155.5,5422.3c0.5-0.5,0.8-1.2,0.8-2.1s-0.3-1.6-0.8-2.1s-1.1-0.8-1.8-0.8
			c-0.7,0-1.3,0.3-1.8,0.8s-0.8,1.2-0.8,2.1c0,0.9,0.3,1.6,0.8,2.1c0.5,0.5,1.1,0.8,1.8,0.8C154.4,5423,155,5422.8,155.5,5422.3z"/>
		<path d="M159.7,5424v-10.4h1.3v10.4H159.7z"/>
	</g>
	<g class="st3">
		<path d="M98.9,5441.1c-1.4,0-2.6-0.5-3.5-1.4c-1-0.9-1.4-2.1-1.4-3.6s0.5-2.6,1.4-3.5c1-0.9,2.1-1.4,3.5-1.4s2.6,0.5,3.5,1.4
			c0.9,0.9,1.4,2.1,1.4,3.5c0,1.4-0.5,2.6-1.4,3.6C101.5,5440.6,100.3,5441.1,98.9,5441.1z M101.5,5438.9c0.7-0.7,1-1.6,1-2.8
			c0-1.1-0.3-2.1-1-2.8s-1.6-1-2.6-1c-1.1,0-1.9,0.3-2.6,1s-1,1.6-1,2.8c0,1.1,0.3,2.1,1,2.8c0.7,0.7,1.6,1,2.6,1
			S100.9,5439.6,101.5,5438.9z"/>
		<path d="M104.6,5433.3h1.4l2.4,6.5l2.4-6.5h1.4l-3,7.7h-1.4L104.6,5433.3z"/>
		<path d="M116.5,5441.1c-1.1,0-2-0.4-2.7-1.1c-0.7-0.7-1-1.7-1-2.9c0-1.2,0.4-2.2,1.1-2.9c0.7-0.7,1.6-1.1,2.7-1.1s2,0.3,2.7,1
			c0.7,0.7,1,1.6,1,2.6c0,0.3,0,0.5-0.1,0.8H114c0,0.8,0.3,1.4,0.7,1.8s1,0.7,1.7,0.7c0.5,0,1-0.1,1.3-0.4c0.4-0.2,0.6-0.5,0.8-0.9
			h1.4c-0.2,0.7-0.7,1.2-1.3,1.7C118.1,5440.9,117.4,5441.1,116.5,5441.1z M118.2,5434.9c-0.5-0.4-1-0.7-1.7-0.7s-1.2,0.2-1.7,0.7
			c-0.4,0.4-0.7,1-0.7,1.8h4.8C118.9,5435.9,118.6,5435.3,118.2,5434.9z"/>
		<path d="M123.1,5433.3v1.3c0.5-1,1.2-1.4,2.3-1.4v1.3h-0.3c-0.7,0-1.2,0.2-1.5,0.5s-0.5,0.9-0.5,1.8v4.2h-1.3v-7.7H123.1z"/>
		<path d="M128.2,5430.6v3.9c0.5-0.9,1.4-1.4,2.5-1.4c0.8,0,1.6,0.3,2.1,0.8s0.9,1.4,0.9,2.4v4.5h-1.3v-4.3c0-0.8-0.2-1.4-0.6-1.8
			c-0.4-0.4-0.9-0.6-1.5-0.6c-0.7,0-1.2,0.2-1.6,0.6s-0.6,1-0.6,1.8v4.3h-1.3v-10.4H128.2z"/>
		<path d="M139,5441.1c-1.1,0-2-0.4-2.7-1.1c-0.7-0.7-1-1.7-1-2.9c0-1.2,0.4-2.2,1.1-2.9c0.7-0.7,1.6-1.1,2.7-1.1s2,0.3,2.7,1
			c0.7,0.7,1,1.6,1,2.6c0,0.3,0,0.5-0.1,0.8h-6.1c0,0.8,0.3,1.4,0.7,1.8s1,0.7,1.7,0.7c0.5,0,1-0.1,1.3-0.4c0.4-0.2,0.6-0.5,0.8-0.9
			h1.4c-0.2,0.7-0.7,1.2-1.3,1.7C140.6,5440.9,139.9,5441.1,139,5441.1z M140.7,5434.9c-0.5-0.4-1-0.7-1.7-0.7s-1.2,0.2-1.7,0.7
			c-0.4,0.4-0.7,1-0.7,1.8h4.8C141.4,5435.9,141.1,5435.3,140.7,5434.9z"/>
		<path d="M144.8,5440c-0.7-0.8-1.1-1.7-1.1-2.9c0-1.2,0.3-2.1,1-2.8c0.7-0.7,1.6-1.1,2.6-1.1c0.7,0,1.2,0.2,1.7,0.5
			c0.5,0.3,0.9,0.7,1.1,1.2v-1.5h1.3v7.7h-1.3v-1.6c-0.3,0.5-0.6,0.9-1.1,1.2c-0.5,0.3-1.1,0.5-1.7,0.5
			C146.4,5441.1,145.5,5440.8,144.8,5440z M149.5,5439.3c0.5-0.5,0.8-1.2,0.8-2.1s-0.3-1.6-0.8-2.1s-1.1-0.8-1.8-0.8
			c-0.7,0-1.3,0.3-1.8,0.8s-0.8,1.2-0.8,2.1c0,0.9,0.3,1.6,0.8,2.1c0.5,0.5,1.1,0.8,1.8,0.8C148.4,5440,149,5439.8,149.5,5439.3z"/>
		<path d="M154.2,5440c-0.7-0.8-1.1-1.7-1.1-2.9c0-1.2,0.3-2.1,1-2.8c0.7-0.7,1.6-1.1,2.6-1.1c0.7,0,1.2,0.2,1.7,0.5
			c0.5,0.3,0.9,0.7,1.1,1.2v-4.2h1.3v10.4h-1.3v-1.6c-0.3,0.5-0.6,0.9-1.1,1.2c-0.5,0.3-1.1,0.5-1.7,0.5
			C155.8,5441.1,154.9,5440.8,154.2,5440z M158.9,5439.3c0.5-0.5,0.8-1.2,0.8-2.1s-0.3-1.6-0.8-2.1s-1.1-0.8-1.8-0.8
			c-0.7,0-1.3,0.3-1.8,0.8s-0.8,1.2-0.8,2.1c0,0.9,0.3,1.6,0.8,2.1c0.5,0.5,1.1,0.8,1.8,0.8C157.8,5440,158.4,5439.8,158.9,5439.3z"
			/>
	</g>
	<g class="st3">
		<path d="M127,5516.1c-1.4,0-2.6-0.5-3.5-1.4c-1-0.9-1.4-2.1-1.4-3.6s0.5-2.6,1.4-3.5c1-0.9,2.1-1.4,3.5-1.4s2.6,0.5,3.5,1.4
			c0.9,0.9,1.4,2.1,1.4,3.5c0,1.4-0.5,2.6-1.4,3.6C129.5,5515.6,128.4,5516.1,127,5516.1z M129.6,5513.9c0.7-0.7,1-1.6,1-2.8
			c0-1.1-0.3-2.1-1-2.8s-1.6-1-2.6-1c-1.1,0-1.9,0.3-2.6,1s-1,1.6-1,2.8c0,1.1,0.3,2.1,1,2.8c0.7,0.7,1.6,1,2.6,1
			S128.9,5514.6,129.6,5513.9z"/>
		<path d="M136.6,5508.3v1H135v6.7h-1.3v-6.7h-1v-1h1v-0.6c0-0.8,0.2-1.5,0.7-1.8c0.4-0.4,1.2-0.6,2.1-0.6v1c-0.6,0-0.9,0.1-1.2,0.3
			c-0.2,0.2-0.3,0.6-0.3,1.1v0.6H136.6z"/>
		<path d="M139.7,5507.7v0.6h4.3v7.7h-1.3v-6.7h-3.1v6.7h-1.3v-6.7h-1v-1h1v-0.6c0-0.8,0.2-1.5,0.7-1.8c0.4-0.4,1.2-0.6,2.1-0.6v1
			c-0.6,0-0.9,0.1-1.2,0.3C139.8,5506.8,139.7,5507.2,139.7,5507.7z M144,5506.8c-0.2,0.2-0.4,0.3-0.6,0.3s-0.4-0.1-0.6-0.3
			c-0.2-0.2-0.2-0.4-0.2-0.6c0-0.2,0.1-0.4,0.3-0.6s0.4-0.3,0.6-0.3c0.2,0,0.4,0.1,0.6,0.3c0.2,0.2,0.2,0.4,0.2,0.6
			C144.2,5506.5,144.1,5506.7,144,5506.8z"/>
		<path d="M146.6,5515c-0.7-0.7-1-1.7-1-2.9c0-1.2,0.3-2.1,1-2.9c0.7-0.7,1.6-1.1,2.7-1.1c0.9,0,1.7,0.2,2.3,0.6
			c0.6,0.4,1,1,1.2,1.8h-1.4c-0.1-0.4-0.4-0.8-0.8-1c-0.4-0.3-0.8-0.4-1.3-0.4c-0.7,0-1.3,0.3-1.8,0.8c-0.4,0.5-0.7,1.2-0.7,2.2
			s0.2,1.6,0.7,2.2c0.4,0.5,1,0.8,1.8,0.8c1.1,0,1.8-0.5,2.1-1.4h1.4c-0.2,0.8-0.6,1.4-1.2,1.8c-0.6,0.4-1.3,0.7-2.2,0.7
			C148.2,5516.1,147.3,5515.8,146.6,5515z"/>
		<path d="M157.7,5516.1c-1.1,0-2-0.4-2.7-1.1c-0.7-0.7-1-1.7-1-2.9c0-1.2,0.4-2.2,1.1-2.9c0.7-0.7,1.6-1.1,2.7-1.1s2,0.3,2.7,1
			c0.7,0.7,1,1.6,1,2.6c0,0.3,0,0.5-0.1,0.8h-6.1c0,0.8,0.3,1.4,0.7,1.8s1,0.7,1.7,0.7c0.5,0,1-0.1,1.3-0.4c0.4-0.2,0.6-0.5,0.8-0.9
			h1.4c-0.2,0.7-0.7,1.2-1.3,1.7C159.4,5515.9,158.6,5516.1,157.7,5516.1z M159.4,5509.9c-0.5-0.4-1-0.7-1.7-0.7s-1.2,0.2-1.7,0.7
			c-0.4,0.4-0.7,1-0.7,1.8h4.8C160.1,5510.9,159.9,5510.3,159.4,5509.9z"/>
	</g>
	<g class="st3">
		<path d="M130.1,5533l-3.7-9.7h1.4l3.1,8.3l3.1-8.3h1.4l-3.7,9.7H130.1z"/>
		<path d="M137.9,5523.8c-0.2,0.2-0.4,0.3-0.6,0.3s-0.4-0.1-0.6-0.3c-0.2-0.2-0.2-0.4-0.2-0.6c0-0.2,0.1-0.4,0.3-0.6
			s0.4-0.3,0.6-0.3c0.2,0,0.4,0.1,0.6,0.3s0.3,0.4,0.3,0.6C138.1,5523.5,138,5523.7,137.9,5523.8z M136.6,5533v-7.7h1.3v7.7H136.6z"
			/>
		<path d="M139.7,5527.5c0-0.6,0.3-1.2,0.8-1.6c0.5-0.4,1.2-0.7,2.1-0.7s1.5,0.2,2,0.7c0.5,0.4,0.8,1,0.8,1.8h-1.3
			c0-0.4-0.2-0.8-0.4-1c-0.3-0.3-0.6-0.4-1.1-0.4c-0.5,0-0.9,0.1-1.1,0.3s-0.4,0.5-0.4,0.9s0.2,0.6,0.5,0.8c0.3,0.2,0.7,0.3,1.1,0.4
			c0.4,0.1,0.9,0.2,1.3,0.3c0.4,0.1,0.8,0.3,1.1,0.7c0.3,0.3,0.5,0.8,0.5,1.4c0,0.6-0.3,1.1-0.8,1.5c-0.5,0.4-1.2,0.6-2.1,0.6
			c-0.9,0-1.5-0.2-2.1-0.6c-0.5-0.4-0.8-1-0.8-1.8h1.3c0,0.4,0.2,0.8,0.5,1s0.7,0.4,1.2,0.4c0.5,0,0.9-0.1,1.2-0.3s0.4-0.5,0.4-0.8
			c0-0.3-0.1-0.6-0.3-0.8c-0.2-0.2-0.5-0.3-0.8-0.4c-0.3-0.1-0.7-0.2-1.1-0.3c-0.4-0.1-0.8-0.2-1.1-0.3c-0.3-0.1-0.6-0.3-0.8-0.6
			S139.7,5527.9,139.7,5527.5z"/>
		<path d="M148.6,5523.8c-0.2,0.2-0.4,0.3-0.6,0.3s-0.4-0.1-0.6-0.3c-0.2-0.2-0.2-0.4-0.2-0.6c0-0.2,0.1-0.4,0.3-0.6
			s0.4-0.3,0.6-0.3c0.2,0,0.4,0.1,0.6,0.3s0.3,0.4,0.3,0.6C148.9,5523.5,148.8,5523.7,148.6,5523.8z M147.3,5533v-7.7h1.3v7.7H147.3
			z"/>
		<path d="M153.2,5532h1.1v1H153c-1.3,0-2-0.7-2-2v-4.7h-1v-1h1v-1.9h1.3v1.9h2v1h-2v4.7c0,0.3,0.1,0.6,0.2,0.7
			C152.6,5531.9,152.9,5532,153.2,5532z"/>
		<path d="M155.4,5527.5c0-0.6,0.3-1.2,0.8-1.6c0.5-0.4,1.2-0.7,2.1-0.7s1.5,0.2,2,0.7c0.5,0.4,0.8,1,0.8,1.8h-1.3
			c0-0.4-0.2-0.8-0.4-1c-0.3-0.3-0.6-0.4-1.1-0.4c-0.5,0-0.9,0.1-1.1,0.3s-0.4,0.5-0.4,0.9s0.2,0.6,0.5,0.8c0.3,0.2,0.7,0.3,1.1,0.4
			c0.4,0.1,0.9,0.2,1.3,0.3c0.4,0.1,0.8,0.3,1.1,0.7c0.3,0.3,0.5,0.8,0.5,1.4c0,0.6-0.3,1.1-0.8,1.5c-0.5,0.4-1.2,0.6-2.1,0.6
			c-0.9,0-1.5-0.2-2.1-0.6c-0.5-0.4-0.8-1-0.8-1.8h1.3c0,0.4,0.2,0.8,0.5,1s0.7,0.4,1.2,0.4c0.5,0,0.9-0.1,1.2-0.3s0.4-0.5,0.4-0.8
			c0-0.3-0.1-0.6-0.3-0.8c-0.2-0.2-0.5-0.3-0.8-0.4c-0.3-0.1-0.7-0.2-1.1-0.3c-0.4-0.1-0.8-0.2-1.1-0.3c-0.3-0.1-0.6-0.3-0.8-0.6
			S155.4,5527.9,155.4,5527.5z"/>
	</g>
	<g id="Line_33">
		<rect x="208" y="5348" class="st1" width="2" height="28"/>
	</g>
	<g id="Line_118">
		<rect x="208" y="5663" class="st1" width="2" height="28"/>
	</g>
	<g id="Line_34">
		<rect x="208" y="5453" class="st4" width="2" height="28"/>
	</g>
	<g id="Line_117">
		<rect x="208" y="5558" class="st4" width="2" height="28"/>
	</g>
	<g id="Line_37">
		
			<rect x="156.4" y="5412.2" transform="matrix(0.7032 -0.711 0.711 0.7032 -3787.03 1754.6914)" class="st4" width="103.5" height="2"/>
	</g>
	<g id="Line_38">
		
			<rect x="154.1" y="5517.2" transform="matrix(0.7032 -0.711 0.711 0.7032 -3862.3459 1784.2734)" class="st4" width="103.5" height="2"/>
	</g>
	<g id="User_Male_2x.png">
		<path class="st1" d="M209,5328c-9.9,0-18-8.1-18-18s8.1-18,18-18s18,8.1,18,18S218.9,5328,209,5328z M219.8,5322.3
			c-1.3-1.2-2.7-2.3-4.3-3.1c-2-0.9-3.1-2-3.6-3.2c-0.3-1.1-0.2-2.2,0.3-3.2c0.3-0.6,0.6-1.1,0.8-1.5c1-1.7,1.6-2.8,1.6-7
			c0-4.2-1.7-5.7-3.2-5.7c-0.3,0-0.6,0.1-0.9,0.2c-0.8,0.3-1.6,0.4-2.4,0.4c-1.8,0-4.1,0.1-4.1,4.9c-0.1,2.6,0.5,5.2,1.9,7.4
			c0.3,0.5,0.5,0.9,0.7,1.4c1.1,2.6,0.2,4.8-2.6,6.1c-2.1,0.8-4,2-5.7,3.5C204.5,5327.7,213.6,5327.7,219.8,5322.3L219.8,5322.3z
			 M209,5293.6c-9,0-16.4,7.3-16.4,16.3c0,4.2,1.6,8.3,4.5,11.3c1.8-1.7,3.9-3,6.2-3.9c2-0.9,2.6-2.1,1.8-3.9
			c-0.2-0.4-0.4-0.8-0.6-1.2c-1.5-2.5-2.2-5.3-2.1-8.2c0-6.4,3.9-6.5,5.7-6.5c0.6,0,1.3-0.1,1.9-0.3c0.5-0.2,1-0.3,1.5-0.3
			c0.8,0,4.8,0.4,4.8,7.3c0,4.7-0.8,6-1.8,7.8c-0.2,0.4-0.5,0.9-0.8,1.5c-0.3,0.6-0.4,1.3-0.3,1.9c0.3,0.8,1.2,1.5,2.7,2.3
			c1.7,0.9,3.3,2.1,4.7,3.5c6.2-6.6,5.9-16.9-0.7-23.1C217.2,5295.2,213.2,5293.6,209,5293.6z"/>
	</g>
	<g id="Path_55" class="st5">
		<path class="st1" d="M208.2,5271.4c21.1,0,38.2,17.1,38.2,38.2s-17.1,38.2-38.2,38.2s-38.2-17.1-38.2-38.2
			S187.1,5271.4,208.2,5271.4C208.2,5271.4,208.2,5271.4,208.2,5271.4z"/>
	</g>
	<g id="Users_2_2x.png">
		<path class="st4" d="M222.5,5419.1c2.2,0.6,3.6,2.6,3.5,4.8c0,0.4-0.3,0.8-0.8,0.8c0,0,0,0,0,0h-3.6c-0.2-0.6-0.4-1.1-0.8-1.6h3.5
			c-0.2-1.2-1.1-2.2-2.3-2.5c-1.9-0.6-3.1-2.3-3-4.3c-0.1-1.5,0.3-3,1.3-4.2l0.1-0.1l0,0c0.1-0.5,0.1-1-0.1-1.4
			c-0.1-0.4,0-0.7,0.1-1.1c0.3-0.7,0.9-2,0.5-3c-0.7-1.7-1-1.8-1.8-2.2c-0.1,0-0.2-0.1-0.2-0.1c-0.6-0.3-1.2-0.4-1.9-0.4
			c-0.4,0-0.7,0.1-1.1,0.2c0,0,0,0-0.1,0c-0.1-0.5-0.3-1-0.5-1.5c0.5-0.2,1.1-0.3,1.7-0.3c1,0,1.9,0.2,2.8,0.7
			c1.3,0.6,1.9,1.1,2.7,3.1c0.7,1.7-0.1,3.5-0.6,4.4c0.5,2.1-0.2,2.8-0.2,2.8c-0.7,0.9-1.1,2.1-1,3.3
			C220.6,5417.6,221.3,5418.8,222.5,5419.1z M214.5,5420.9c1.9,0.7,5.7,1.9,5.7,6.3c0,0.4-0.3,0.8-0.8,0.8c0,0,0,0,0,0h-22.9
			c-0.4,0-0.8-0.3-0.8-0.8c0,0,0,0,0,0c0-4.3,3.9-5.6,5.7-6.3c1.7-0.4,2.9-1.9,2.9-3.7c0.1-1.6-0.5-3.1-1.7-4.2c0,0-0.9-0.9-0.2-3.6
			c-0.5-1.2-1.6-3.5-0.7-5.6c0.6-1.8,2-3.3,3.8-3.9c1.1-0.6,2.2-0.9,3.4-0.9c0.8,0,1.6,0.2,2.3,0.5c1,0.5,1.6,1.5,2.4,3.2
			c1.3,2.9,1,5.3-0.1,6.8c0.6,2.7-0.3,3.5-0.3,3.5c-1.1,1.1-1.7,2.6-1.7,4.2C211.6,5419,212.8,5420.5,214.5,5420.9L214.5,5420.9z
			 M211.7,5412.3c0.1-0.1,0.3-0.4,0.3-0.4c0.2-0.7,0.2-1.4-0.1-2c-0.1-0.5,0-0.9,0.3-1.3c0.4-0.6,1.3-2.2-0.1-5.2
			c-0.7-1.7-1.2-2.2-1.7-2.4c-0.5-0.2-1-0.4-1.5-0.3c-0.9,0-1.8,0.2-2.5,0.6c-0.1,0-0.1,0.1-0.2,0.1c-1.4,0.5-2.5,1.6-2.9,3.1
			c-0.6,1.5,0.2,3.3,0.7,4.3c0.2,0.3,0.2,0.7,0.1,1.1c-0.3,0.7-0.3,1.5-0.1,2.2c0,0,0.1,0.1,0.2,0.3c1.2,1.3,1.9,3.1,1.8,4.9
			c0,2.5-1.7,4.6-4.1,5.2l-0.1,0c-2.1,0.7-4.1,1.6-4.5,3.9h21.1c-0.4-2.3-2.4-3.2-4.5-3.9l-0.1,0c-2.4-0.6-4.1-2.8-4.1-5.2
			C209.9,5415.4,210.5,5413.6,211.7,5412.3L211.7,5412.3z M200,5404c-0.3-0.1-0.7-0.2-1-0.2c-0.6,0-1.3,0.1-1.9,0.4
			c-0.1,0-0.1,0.1-0.2,0.1c-0.8,0.3-1.1,0.5-1.8,2.2c-0.4,1,0.2,2.3,0.5,3c0.2,0.3,0.2,0.7,0.1,1.1c-0.2,0.5-0.2,1-0.1,1.4l0,0
			l0.1,0.1c0.9,1.2,1.4,2.7,1.3,4.2c0.1,2-1.1,3.7-3,4.3c-1.2,0.3-2.1,1.3-2.3,2.5h3.5c-0.3,0.5-0.6,1-0.8,1.6h-3.6
			c-0.4,0-0.8-0.3-0.8-0.8c0,0,0,0,0,0c-0.2-2.2,1.3-4.3,3.5-4.8c1.2-0.4,2-1.5,1.8-2.8c0.1-1.2-0.3-2.4-1-3.3c0,0-0.7-0.7-0.2-2.8
			c-0.4-0.9-1.3-2.7-0.6-4.4c0.8-2,1.4-2.5,2.7-3.1c0.8-0.4,1.8-0.7,2.8-0.7c0.5,0,1.1,0.1,1.6,0.3c-0.1,0.2-0.2,0.4-0.3,0.7
			C200.2,5403.5,200.1,5403.8,200,5404z"/>
	</g>
	<g id="Ellipse_17" transform="translate(171 5586)">
		<g>
			<circle class="st0" cx="38.5" cy="38.5" r="38.5"/>
		</g>
		<g>
			<path class="st2" d="M38.5,77C17.3,77,0,59.7,0,38.5S17.3,0,38.5,0C59.7,0,77,17.3,77,38.5S59.7,77,38.5,77z M38.5,2
				C18.4,2,2,18.4,2,38.5S18.4,75,38.5,75S75,58.6,75,38.5S58.6,2,38.5,2z"/>
		</g>
	</g>
	<g class="st3">
		<path d="M113,5619.7c-1-0.9-1.4-2.1-1.4-3.5s0.5-2.6,1.4-3.5c1-0.9,2.1-1.4,3.5-1.4c1,0,1.9,0.2,2.7,0.7c0.8,0.5,1.4,1.2,1.7,2.1
			h-1.5c-0.6-1.1-1.5-1.6-2.9-1.6c-1.1,0-1.9,0.3-2.6,1s-1,1.6-1,2.8c0,1.1,0.3,2.1,1,2.8s1.6,1,2.6,1c0.6,0,1.2-0.1,1.7-0.4
			s0.9-0.7,1.2-1.2h1.5c-0.4,0.9-1,1.6-1.7,2.1c-0.8,0.5-1.7,0.7-2.7,0.7C115.2,5621.1,114,5620.6,113,5619.7z"/>
		<path d="M123,5621v-10.4h1.3v10.4H123z"/>
		<path d="M127.6,5611.8c-0.2,0.2-0.4,0.3-0.6,0.3s-0.4-0.1-0.6-0.3c-0.2-0.2-0.2-0.4-0.2-0.6c0-0.2,0.1-0.4,0.3-0.6
			s0.4-0.3,0.6-0.3c0.2,0,0.4,0.1,0.6,0.3s0.3,0.4,0.3,0.6C127.9,5611.5,127.8,5611.7,127.6,5611.8z M126.4,5621v-7.7h1.3v7.7H126.4
			z"/>
		<path d="M131,5613.3v1.2c0.5-0.9,1.4-1.4,2.5-1.4c0.8,0,1.6,0.3,2.1,0.8s0.9,1.4,0.9,2.4v4.5h-1.3v-4.3c0-0.8-0.2-1.4-0.6-1.8
			c-0.4-0.4-0.9-0.6-1.5-0.6c-0.7,0-1.2,0.2-1.6,0.6s-0.6,1-0.6,1.8v4.3h-1.3v-7.7H131z"/>
		<path d="M139.8,5611.8c-0.2,0.2-0.4,0.3-0.6,0.3s-0.4-0.1-0.6-0.3c-0.2-0.2-0.2-0.4-0.2-0.6c0-0.2,0.1-0.4,0.3-0.6
			s0.4-0.3,0.6-0.3c0.2,0,0.4,0.1,0.6,0.3s0.3,0.4,0.3,0.6C140,5611.5,139.9,5611.7,139.8,5611.8z M138.5,5621v-7.7h1.3v7.7H138.5z"
			/>
		<path d="M142.4,5620c-0.7-0.7-1-1.7-1-2.9c0-1.2,0.3-2.1,1-2.9c0.7-0.7,1.6-1.1,2.7-1.1c0.9,0,1.7,0.2,2.3,0.6
			c0.6,0.4,1,1,1.2,1.8h-1.4c-0.1-0.4-0.4-0.8-0.8-1c-0.4-0.3-0.8-0.4-1.3-0.4c-0.7,0-1.3,0.3-1.8,0.8c-0.4,0.5-0.7,1.2-0.7,2.2
			s0.2,1.6,0.7,2.2c0.4,0.5,1,0.8,1.8,0.8c1.1,0,1.8-0.5,2.1-1.4h1.4c-0.2,0.8-0.6,1.4-1.2,1.8c-0.6,0.4-1.3,0.7-2.2,0.7
			C144,5621.1,143.1,5620.8,142.4,5620z"/>
		<path d="M150.8,5620c-0.7-0.8-1.1-1.7-1.1-2.9c0-1.2,0.3-2.1,1-2.8c0.7-0.7,1.6-1.1,2.6-1.1c0.7,0,1.2,0.2,1.7,0.5
			c0.5,0.3,0.9,0.7,1.1,1.2v-1.5h1.3v7.7h-1.3v-1.6c-0.3,0.5-0.6,0.9-1.1,1.2c-0.5,0.3-1.1,0.5-1.7,0.5
			C152.4,5621.1,151.5,5620.8,150.8,5620z M155.5,5619.3c0.5-0.5,0.8-1.2,0.8-2.1s-0.3-1.6-0.8-2.1s-1.1-0.8-1.8-0.8
			c-0.7,0-1.3,0.3-1.8,0.8s-0.8,1.2-0.8,2.1c0,0.9,0.3,1.6,0.8,2.1c0.5,0.5,1.1,0.8,1.8,0.8C154.4,5620,155,5619.8,155.5,5619.3z"/>
		<path d="M159.7,5621v-10.4h1.3v10.4H159.7z"/>
	</g>
	<g class="st3">
		<path d="M121.1,5628.3v9.7h-1.3v-7.1l-3.2,7.1h-0.8l-3.3-7.1v7.1h-1.3v-9.7h1.3l3.7,8l3.6-8H121.1z"/>
		<path d="M123.7,5637c-0.7-0.8-1.1-1.7-1.1-2.9c0-1.2,0.3-2.1,1-2.8c0.7-0.7,1.6-1.1,2.6-1.1c0.7,0,1.2,0.2,1.7,0.5
			c0.5,0.3,0.9,0.7,1.1,1.2v-1.5h1.3v7.7h-1.3v-1.6c-0.3,0.5-0.6,0.9-1.1,1.2c-0.5,0.3-1.1,0.5-1.7,0.5
			C125.3,5638.1,124.4,5637.8,123.7,5637z M128.4,5636.3c0.5-0.5,0.8-1.2,0.8-2.1s-0.3-1.6-0.8-2.1s-1.1-0.8-1.8-0.8
			c-0.7,0-1.3,0.3-1.8,0.8s-0.8,1.2-0.8,2.1c0,0.9,0.3,1.6,0.8,2.1c0.5,0.5,1.1,0.8,1.8,0.8C127.3,5637,127.9,5636.8,128.4,5636.3z"
			/>
		<path d="M133.8,5630.3v1.3c0.5-1,1.2-1.4,2.3-1.4v1.3h-0.3c-0.7,0-1.2,0.2-1.5,0.5s-0.5,0.9-0.5,1.8v4.2h-1.3v-7.7H133.8z"/>
		<path d="M139,5638h-1.3v-10.4h1.3v6.1l2.9-3.4h1.8l-3.6,3.8l3.6,3.9H142l-3-3.4V5638z"/>
		<path d="M150.3,5630.3h1.3v7.7h-1.3v-1.2c-0.5,0.9-1.3,1.4-2.5,1.4c-0.8,0-1.6-0.3-2.1-0.8s-0.9-1.4-0.9-2.4v-4.6h1.3v4.4
			c0,0.8,0.2,1.4,0.6,1.8s0.9,0.6,1.5,0.6s1.2-0.2,1.5-0.6s0.6-1,0.6-1.8V5630.3z"/>
		<path d="M157.8,5630.2c1.1,0,1.9,0.4,2.6,1.1c0.7,0.7,1,1.7,1,2.8c0,1.2-0.4,2.1-1,2.9c-0.7,0.8-1.6,1.1-2.6,1.1
			c-0.7,0-1.2-0.2-1.7-0.5c-0.5-0.3-0.9-0.7-1.1-1.2v5.2h-1.3v-11.3h1.3v1.5c0.3-0.5,0.6-0.9,1.1-1.2
			C156.6,5630.3,157.1,5630.2,157.8,5630.2z M157.5,5637c0.7,0,1.3-0.3,1.8-0.8c0.5-0.5,0.8-1.2,0.8-2.1s-0.3-1.6-0.8-2.1
			s-1.1-0.8-1.8-0.8s-1.3,0.3-1.8,0.8s-0.8,1.2-0.8,2.1s0.3,1.6,0.8,2.1S156.8,5637,157.5,5637z"/>
	</g>
	<g id="Line_39">
		
			<rect x="158.1" y="5622.2" transform="matrix(0.7032 -0.711 0.711 0.7032 -3935.8252 1818.2562)" class="st4" width="103.5" height="2"/>
	</g>
	<g id="Group_74" transform="translate(197.341 5610.271)">
		<g id="Ellipse_19">
			<path class="st4" d="M23.2,26.4C17,26.4,12,21.6,12,15.7S17,5,23.2,5s11.2,4.8,11.2,10.7S29.3,26.4,23.2,26.4z M23.2,6.4
				c-5.4,0-9.8,4.2-9.8,9.3s4.4,9.3,9.8,9.3c5.4,0,9.8-4.2,9.8-9.3S28.6,6.4,23.2,6.4z"/>
		</g>
		<g id="Ellipse_20">
			<path class="st4" d="M23.2,23.4c-4.5,0-8.2-3.5-8.2-7.7S18.6,8,23.2,8s8.2,3.5,8.2,7.7S27.7,23.4,23.2,23.4z M23.2,9.4
				c-3.7,0-6.8,2.8-6.8,6.3s3.1,6.3,6.8,6.3c3.8,0,6.8-2.8,6.8-6.3S26.9,9.4,23.2,9.4z"/>
		</g>
		<g id="Path_43">
			<path class="st4" d="M24.3,26.8H1.3c-1.1,0-1.9-0.9-1.9-1.9V24c0-1.1,0.9-1.9,1.9-1.9h14.6v1.4H1.3c-0.3,0-0.5,0.2-0.5,0.5v0.8
				c0,0.3,0.2,0.5,0.5,0.5h19.1l0.2-0.5L24.3,26.8z"/>
		</g>
		<g id="Path_44">
			<path class="st4" d="M15.9,23.5H2.4c-1.1,0-1.9-0.9-1.9-1.9v-0.8c0-1.1,0.9-1.9,1.9-1.9h11.9v1.4H2.4c-0.3,0-0.5,0.2-0.5,0.5v0.8
				c0,0.3,0.2,0.5,0.5,0.5h13.5V23.5z"/>
		</g>
		<g id="Path_45">
			<path class="st4" d="M14.2,20.2H3.4c-1.1,0-1.9-0.9-1.9-1.9v-0.8c0-1.1,0.9-1.9,1.9-1.9h10.3v1.4H3.4c-0.3,0-0.5,0.2-0.5,0.5v0.8
				c0,0.3,0.2,0.5,0.5,0.5h10.8V20.2z"/>
		</g>
		<g id="Path_46">
			<path class="st4" d="M13.7,16.9H1.3c-1.1,0-1.9-0.9-1.9-1.9v-0.8c0-1.1,0.9-1.9,1.9-1.9h12.4v1.4H1.3c-0.3,0-0.5,0.2-0.5,0.5V15
				c0,0.3,0.2,0.5,0.5,0.5h12.4V16.9z"/>
		</g>
		<g id="Path_47">
			<path class="st4" d="M13.7,13.6H2.4c-1.1,0-1.9-0.9-1.9-1.9v-0.8C0.4,9.8,1.3,9,2.4,9h13v1.4h-13c-0.3,0-0.5,0.2-0.5,0.5v0.8
				c0,0.3,0.2,0.5,0.5,0.5h11.3V13.6z"/>
		</g>
		<g id="Path_48">
			<path class="st4" d="M15.3,10.4H1.3c-1.1,0-1.9-0.9-1.9-1.9V7.6c0-1.1,0.9-1.9,1.9-1.9h17.4v1.4H1.3C1,7.1,0.7,7.3,0.7,7.6v0.8
				C0.7,8.7,1,9,1.3,9h14.1V10.4z"/>
		</g>
		<g id="Path_49">
			<path class="st4" d="M19.2,7.1H2.4c-1.1,0-1.9-0.9-1.9-1.9V4.3c0-1.1,0.9-1.9,1.9-1.9h17.8c1.1,0,1.9,0.9,1.9,1.9v1.5h-1.4V4.3
				c0-0.3-0.2-0.5-0.5-0.5H2.4C2.1,3.8,1.8,4,1.8,4.3v0.8c0,0.3,0.2,0.5,0.5,0.5h16.9V7.1z"/>
		</g>
		<g id="Rectangle_42">
			<path class="st4" d="M18.7,4.4h-17C0.2,4.4-1,3.2-1,1.7S0.2-1,1.7-1h17c1.5,0,2.7,1.2,2.7,2.7S20.1,4.4,18.7,4.4z M1.7,0.4
				C0.9,0.4,0.4,1,0.4,1.7S0.9,3,1.7,3h17C19.4,3,20,2.4,20,1.7s-0.6-1.3-1.3-1.3H1.7z"/>
		</g>
	</g>
	<g class="st3">
		<path d="M262.6,5717h-1.3v-3.7l-3.2-6h1.4l2.4,4.9l2.4-4.9h1.4l-3.1,6V5717z"/>
		<path d="M267.6,5716c-0.7-0.7-1.1-1.7-1.1-2.9s0.4-2.1,1.1-2.9c0.7-0.7,1.7-1.1,2.8-1.1s2,0.4,2.8,1.1c0.7,0.7,1.1,1.7,1.1,2.9
			s-0.4,2.1-1.2,2.9c-0.8,0.7-1.7,1.1-2.8,1.1C269.2,5717.1,268.3,5716.8,267.6,5716z M270.3,5716.1c0.7,0,1.3-0.3,1.9-0.8
			c0.5-0.5,0.8-1.2,0.8-2.1c0-0.9-0.3-1.6-0.8-2.1c-0.5-0.5-1.1-0.8-1.8-0.8c-0.7,0-1.3,0.3-1.8,0.8c-0.5,0.5-0.7,1.2-0.7,2.1
			s0.2,1.6,0.7,2.1C269,5715.8,269.6,5716.1,270.3,5716.1z"/>
		<path d="M281.3,5709.3h1.3v7.7h-1.3v-1.2c-0.5,0.9-1.3,1.4-2.5,1.4c-0.8,0-1.6-0.3-2.1-0.8s-0.9-1.4-0.9-2.4v-4.6h1.3v4.4
			c0,0.8,0.2,1.4,0.6,1.8c0.4,0.4,0.9,0.6,1.5,0.6c0.7,0,1.2-0.2,1.5-0.6c0.4-0.4,0.6-1,0.6-1.8V5709.3z"/>
		<path d="M286,5709.3v1.3c0.5-1,1.2-1.4,2.3-1.4v1.3H288c-0.7,0-1.2,0.2-1.5,0.5s-0.5,0.9-0.5,1.8v4.2h-1.3v-7.7H286z"/>
		<path d="M294.6,5716c-0.7-0.7-1-1.7-1-2.9c0-1.2,0.3-2.1,1-2.9c0.7-0.7,1.6-1.1,2.7-1.1c0.9,0,1.7,0.2,2.3,0.6s1,1,1.2,1.8h-1.4
			c-0.1-0.4-0.4-0.8-0.8-1c-0.4-0.3-0.8-0.4-1.3-0.4c-0.7,0-1.3,0.3-1.8,0.8c-0.4,0.5-0.7,1.2-0.7,2.2s0.2,1.6,0.7,2.2
			c0.4,0.5,1,0.8,1.8,0.8c1.1,0,1.8-0.5,2.1-1.4h1.4c-0.2,0.8-0.6,1.4-1.2,1.8s-1.3,0.7-2.2,0.7
			C296.2,5717.1,295.3,5716.8,294.6,5716z"/>
		<path d="M307.9,5709.3h1.3v7.7h-1.3v-1.2c-0.5,0.9-1.3,1.4-2.5,1.4c-0.8,0-1.6-0.3-2.1-0.8s-0.9-1.4-0.9-2.4v-4.6h1.3v4.4
			c0,0.8,0.2,1.4,0.6,1.8c0.4,0.4,0.9,0.6,1.5,0.6c0.7,0,1.2-0.2,1.5-0.6c0.4-0.4,0.6-1,0.6-1.8V5709.3z"/>
		<path d="M311,5711.5c0-0.6,0.3-1.2,0.8-1.6c0.5-0.4,1.2-0.7,2.1-0.7c0.9,0,1.5,0.2,2,0.7c0.5,0.4,0.8,1,0.8,1.8h-1.3
			c0-0.4-0.2-0.8-0.4-1c-0.3-0.3-0.6-0.4-1.1-0.4c-0.5,0-0.9,0.1-1.1,0.3s-0.4,0.5-0.4,0.9s0.2,0.6,0.5,0.8c0.3,0.2,0.7,0.3,1.1,0.4
			c0.4,0.1,0.9,0.2,1.3,0.3c0.4,0.1,0.8,0.3,1.1,0.7c0.3,0.3,0.5,0.8,0.5,1.4c0,0.6-0.3,1.1-0.8,1.5c-0.5,0.4-1.2,0.6-2.1,0.6
			c-0.9,0-1.5-0.2-2.1-0.6c-0.5-0.4-0.8-1-0.8-1.8h1.3c0,0.4,0.2,0.8,0.5,1c0.3,0.3,0.7,0.4,1.2,0.4c0.5,0,0.9-0.1,1.2-0.3
			s0.4-0.5,0.4-0.8c0-0.3-0.1-0.6-0.3-0.8c-0.2-0.2-0.5-0.3-0.8-0.4c-0.3-0.1-0.7-0.2-1.1-0.3c-0.4-0.1-0.8-0.2-1.1-0.3
			c-0.3-0.1-0.6-0.3-0.8-0.6S311,5711.9,311,5711.5z"/>
		<path d="M321.1,5716h1v1h-1.3c-1.3,0-2-0.7-2-2v-4.7h-1v-1h1v-1.9h1.3v1.9h2v1h-2v4.7c0,0.3,0.1,0.6,0.2,0.7
			C320.5,5715.9,320.8,5716,321.1,5716z"/>
		<path d="M324.1,5716c-0.7-0.7-1.1-1.7-1.1-2.9s0.4-2.1,1.1-2.9s1.7-1.1,2.8-1.1c1.1,0,2,0.4,2.8,1.1s1.1,1.7,1.1,2.9
			s-0.4,2.1-1.2,2.9c-0.8,0.7-1.7,1.1-2.8,1.1C325.7,5717.1,324.8,5716.8,324.1,5716z M326.9,5716.1c0.7,0,1.3-0.3,1.9-0.8
			c0.5-0.5,0.8-1.2,0.8-2.1c0-0.9-0.3-1.6-0.8-2.1c-0.5-0.5-1.1-0.8-1.8-0.8c-0.7,0-1.3,0.3-1.8,0.8c-0.5,0.5-0.7,1.2-0.7,2.1
			s0.2,1.6,0.7,2.1C325.5,5715.8,326.1,5716.1,326.9,5716.1z"/>
		<path d="M333.7,5709.3v1.2c0.5-0.9,1.4-1.4,2.5-1.4c0.6,0,1.1,0.1,1.6,0.4c0.5,0.3,0.8,0.7,1.1,1.2c0.3-0.5,0.7-0.9,1.1-1.2
			s1-0.4,1.6-0.4c0.9,0,1.6,0.3,2.2,0.8s0.9,1.4,0.9,2.4v4.5h-1.3v-4.3c0-0.8-0.2-1.4-0.6-1.8s-0.9-0.6-1.5-0.6
			c-0.7,0-1.2,0.2-1.5,0.6c-0.4,0.4-0.6,1-0.6,1.8v4.3h-1.3v-4.3c0-0.8-0.2-1.4-0.6-1.8c-0.4-0.4-0.9-0.6-1.5-0.6
			c-0.7,0-1.2,0.2-1.6,0.6s-0.6,1-0.6,1.8v4.3h-1.3v-7.7H333.7z"/>
	</g>
	<g class="st3">
		<path d="M260.3,5726.3v1.2c0.5-0.9,1.4-1.4,2.5-1.4c0.6,0,1.1,0.1,1.6,0.4c0.5,0.3,0.8,0.7,1.1,1.2c0.3-0.5,0.7-0.9,1.1-1.2
			s1-0.4,1.6-0.4c0.9,0,1.6,0.3,2.2,0.8c0.6,0.6,0.9,1.4,0.9,2.4v4.5H270v-4.3c0-0.8-0.2-1.4-0.6-1.8c-0.4-0.4-0.9-0.6-1.5-0.6
			s-1.2,0.2-1.5,0.6s-0.6,1-0.6,1.8v4.3h-1.3v-4.3c0-0.8-0.2-1.4-0.6-1.8s-0.9-0.6-1.5-0.6s-1.2,0.2-1.6,0.6c-0.4,0.4-0.6,1-0.6,1.8
			v4.3H259v-7.7H260.3z"/>
		<path d="M273.9,5733c-0.7-0.8-1-1.7-1-2.9c0-1.2,0.3-2.1,1-2.8c0.7-0.7,1.6-1.1,2.6-1.1c0.7,0,1.2,0.2,1.7,0.5
			c0.5,0.3,0.9,0.7,1.1,1.2v-1.5h1.3v7.7h-1.3v-1.6c-0.3,0.5-0.6,0.9-1.1,1.2s-1.1,0.5-1.7,0.5
			C275.4,5734.1,274.6,5733.8,273.9,5733z M278.6,5732.3c0.5-0.5,0.8-1.2,0.8-2.1s-0.3-1.6-0.8-2.1s-1.1-0.8-1.8-0.8
			c-0.7,0-1.3,0.3-1.8,0.8s-0.8,1.2-0.8,2.1c0,0.9,0.3,1.6,0.8,2.1c0.5,0.5,1.1,0.8,1.8,0.8C277.4,5733,278,5732.8,278.6,5732.3z"/>
		<path d="M283.3,5733c-0.7-0.8-1.1-1.7-1.1-2.9c0-1.2,0.3-2.1,1-2.8c0.7-0.7,1.6-1.1,2.6-1.1c0.7,0,1.2,0.2,1.7,0.5
			c0.5,0.3,0.9,0.7,1.1,1.2v-4.2h1.3v10.4h-1.3v-1.6c-0.3,0.5-0.6,0.9-1.1,1.2c-0.5,0.3-1.1,0.5-1.7,0.5
			C284.8,5734.1,284,5733.8,283.3,5733z M287.9,5732.3c0.5-0.5,0.8-1.2,0.8-2.1s-0.3-1.6-0.8-2.1s-1.1-0.8-1.8-0.8s-1.3,0.3-1.8,0.8
			s-0.8,1.2-0.8,2.1c0,0.9,0.3,1.6,0.8,2.1c0.5,0.5,1.1,0.8,1.8,0.8S287.4,5732.8,287.9,5732.3z"/>
		<path d="M295.3,5734.1c-1.1,0-2-0.4-2.7-1.1c-0.7-0.7-1-1.7-1-2.9c0-1.2,0.3-2.2,1.1-2.9c0.7-0.7,1.6-1.1,2.7-1.1s2,0.3,2.7,1
			c0.7,0.7,1,1.6,1,2.6c0,0.3,0,0.5-0.1,0.8h-6.1c0,0.8,0.3,1.4,0.7,1.8s1,0.7,1.7,0.7c0.5,0,1-0.1,1.3-0.4c0.4-0.2,0.6-0.5,0.8-0.9
			h1.4c-0.2,0.7-0.7,1.2-1.3,1.7C297,5733.9,296.2,5734.1,295.3,5734.1z M297,5727.9c-0.5-0.4-1-0.7-1.7-0.7s-1.2,0.2-1.7,0.7
			c-0.4,0.4-0.7,1-0.7,1.8h4.8C297.7,5728.9,297.5,5728.3,297,5727.9z"/>
		<path d="M311.2,5724.3h1.3v9.7h-1.3l-5.1-7.7v7.7h-1.3v-9.7h1.3l5.1,7.7V5724.3z"/>
		<path d="M315.9,5724.8c-0.2,0.2-0.4,0.3-0.6,0.3c-0.2,0-0.4-0.1-0.6-0.3c-0.2-0.2-0.2-0.4-0.2-0.6c0-0.2,0.1-0.4,0.3-0.6
			s0.4-0.3,0.6-0.3c0.2,0,0.4,0.1,0.6,0.3s0.3,0.4,0.3,0.6C316.1,5724.5,316,5724.7,315.9,5724.8z M314.6,5734v-7.7h1.3v7.7H314.6z"
			/>
		<path d="M318.5,5733c-0.7-0.8-1-1.7-1-2.9c0-1.2,0.3-2.1,1-2.8c0.7-0.7,1.6-1.1,2.6-1.1c0.7,0,1.2,0.2,1.7,0.5
			c0.5,0.3,0.9,0.7,1.1,1.2v-1.5h1.3v7.9c0,1.1-0.3,1.9-1,2.6c-0.7,0.7-1.5,1-2.6,1s-1.9-0.2-2.6-0.7s-1.1-1.1-1.2-1.9h1.2
			c0.1,0.4,0.4,0.8,0.9,1.1c0.4,0.3,1,0.4,1.7,0.4s1.2-0.2,1.7-0.7c0.4-0.4,0.7-1,0.7-1.8v-1.8c-0.3,0.5-0.6,0.9-1.1,1.2
			c-0.5,0.3-1.1,0.5-1.7,0.5C320.1,5734.1,319.2,5733.8,318.5,5733z M323.2,5732.3c0.5-0.5,0.8-1.2,0.8-2.1s-0.3-1.6-0.8-2.1
			c-0.5-0.5-1.1-0.8-1.8-0.8c-0.7,0-1.3,0.3-1.8,0.8c-0.5,0.5-0.8,1.2-0.8,2.1c0,0.9,0.3,1.6,0.8,2.1c0.5,0.5,1.1,0.8,1.8,0.8
			C322.1,5733,322.7,5732.8,323.2,5732.3z"/>
		<path d="M328.6,5723.6v3.9c0.5-0.9,1.4-1.4,2.5-1.4c0.8,0,1.6,0.3,2.1,0.8s0.9,1.4,0.9,2.4v4.5h-1.3v-4.3c0-0.8-0.2-1.4-0.6-1.8
			c-0.4-0.4-0.9-0.6-1.5-0.6c-0.7,0-1.2,0.2-1.6,0.6c-0.4,0.4-0.6,1-0.6,1.8v4.3h-1.3v-10.4H328.6z"/>
		<path d="M338.7,5733h1v1h-1.3c-1.3,0-2-0.7-2-2v-4.7h-1v-1h1v-1.9h1.3v1.9h2v1h-2v4.7c0,0.3,0.1,0.6,0.2,0.7
			C338.1,5732.9,338.3,5733,338.7,5733z"/>
	</g>
	<g class="st3">
		<path d="M263.4,5751.1c-1.3,0-2.5-0.5-3.4-1.4c-1-0.9-1.4-2.1-1.4-3.5s0.5-2.6,1.4-3.5c1-0.9,2.1-1.4,3.5-1.4c1,0,1.9,0.2,2.7,0.7
			c0.8,0.5,1.4,1.2,1.7,2.1h-1.5c-0.6-1.1-1.5-1.6-2.9-1.6c-1.1,0-1.9,0.3-2.6,1s-1,1.6-1,2.8c0,1.1,0.3,2.1,1,2.8s1.5,1,2.6,1
			c1,0,1.8-0.3,2.5-0.9c0.6-0.6,1-1.4,1.1-2.4h-4v-1h5.3v1c-0.1,1.3-0.6,2.3-1.6,3.1C265.9,5750.7,264.8,5751.1,263.4,5751.1z"/>
		<path d="M275.3,5743.3h1.3v7.7h-1.3v-1.2c-0.5,0.9-1.3,1.4-2.5,1.4c-0.8,0-1.6-0.3-2.1-0.8s-0.9-1.4-0.9-2.4v-4.6h1.3v4.4
			c0,0.8,0.2,1.4,0.6,1.8c0.4,0.4,0.9,0.6,1.5,0.6c0.7,0,1.2-0.2,1.5-0.6c0.4-0.4,0.6-1,0.6-1.8V5743.3z"/>
		<path d="M279.3,5750c-0.7-0.8-1-1.7-1-2.9c0-1.2,0.3-2.1,1-2.8c0.7-0.7,1.6-1.1,2.6-1.1c0.7,0,1.2,0.2,1.7,0.5
			c0.5,0.3,0.9,0.7,1.1,1.2v-1.5h1.3v7.7h-1.3v-1.6c-0.3,0.5-0.6,0.9-1.1,1.2c-0.5,0.3-1.1,0.5-1.7,0.5
			C280.8,5751.1,280,5750.8,279.3,5750z M283.9,5749.3c0.5-0.5,0.8-1.2,0.8-2.1s-0.3-1.6-0.8-2.1c-0.5-0.5-1.1-0.8-1.8-0.8
			c-0.7,0-1.3,0.3-1.8,0.8c-0.5,0.5-0.8,1.2-0.8,2.1c0,0.9,0.3,1.6,0.8,2.1c0.5,0.5,1.1,0.8,1.8,0.8
			C282.8,5750,283.4,5749.8,283.9,5749.3z"/>
		<path d="M289.4,5743.3v1.3c0.5-1,1.2-1.4,2.3-1.4v1.3h-0.3c-0.7,0-1.2,0.2-1.5,0.5s-0.5,0.9-0.5,1.8v4.2h-1.3v-7.7H289.4z"/>
		<path d="M293.8,5750c-0.7-0.8-1-1.7-1-2.9c0-1.2,0.3-2.1,1-2.8c0.7-0.7,1.6-1.1,2.6-1.1c0.7,0,1.2,0.2,1.7,0.5
			c0.5,0.3,0.9,0.7,1.1,1.2v-4.2h1.3v10.4h-1.3v-1.6c-0.3,0.5-0.6,0.9-1.1,1.2s-1.1,0.5-1.7,0.5
			C295.4,5751.1,294.5,5750.8,293.8,5750z M298.5,5749.3c0.5-0.5,0.8-1.2,0.8-2.1s-0.3-1.6-0.8-2.1s-1.1-0.8-1.8-0.8
			c-0.7,0-1.3,0.3-1.8,0.8s-0.8,1.2-0.8,2.1c0,0.9,0.3,1.6,0.8,2.1c0.5,0.5,1.1,0.8,1.8,0.8C297.4,5750,298,5749.8,298.5,5749.3z"/>
	</g>
	<g id="Group_268" transform="translate(1)">
		<g id="Ellipse_15" transform="translate(170 5691)">
			<g>
				<circle class="st0" cx="38.5" cy="38.5" r="38.5"/>
			</g>
			<g>
				<path class="st1" d="M38.5,77C17.3,77,0,59.7,0,38.5S17.3,0,38.5,0C59.7,0,77,17.3,77,38.5S59.7,77,38.5,77z M38.5,2
					C18.4,2,2,18.4,2,38.5S18.4,75,38.5,75S75,58.6,75,38.5S58.6,2,38.5,2z"/>
			</g>
		</g>
		<g id="Ellipse_21" class="st5">
			<circle class="st1" cx="208" cy="5730" r="38"/>
		</g>
		<g id="Group_205" transform="translate(189.409 5715.271)">
			<g id="Path_88">
				<path class="st1" d="M18.8,32.4C7.9,32.4-1,25.9-1,18V8.1c0-0.6,0.4-1,1-1s1,0.4,1,1V18c0,6.9,8,12.5,17.8,12.5
					c9.8,0,17.8-5.6,17.8-12.5V4.4c0-0.6,0.4-1,1-1s1,0.4,1,1V18C38.6,25.9,29.7,32.4,18.8,32.4z"/>
			</g>
			<g id="Path_89">
				<path class="st1" d="M22.2,23.9c-0.5,0-0.9-0.4-1-0.9c-0.1-0.5,0.3-1,0.9-1.1c8.4-1.1,14.5-6.3,14.5-12.2c0-0.6,0.4-1,1-1
					s1,0.4,1,1c0,7-6.8,13-16.3,14.2C22.3,23.9,22.2,23.9,22.2,23.9z"/>
			</g>
			<g id="Path_90">
				<path class="st1" d="M15,23.8c0,0-0.1,0-0.1,0C5.7,22.5-1,16.5-1,9.6c0-0.6,0.4-1,1-1s1,0.4,1,1c0,5.9,5.9,11,14.1,12.2
					c0.5,0.1,0.9,0.6,0.8,1.1C15.9,23.5,15.5,23.8,15,23.8z"/>
			</g>
			<g id="Path_91">
				<path class="st1" d="M8.9,22.1c-0.6,0-1-0.4-1-1V4.4C7.9,2.5,6.3,1,4.4,1S1,2.5,1,4.4c0,0.6-0.4,1-1,1s-1-0.4-1-1
					C-1,1.4,1.4-1,4.4-1s5.4,2.4,5.4,5.4v16.6C9.9,21.6,9.4,22.1,8.9,22.1z"/>
			</g>
			<g id="Line_105">
				<path class="st1" d="M28.7,22.1c-0.6,0-1-0.4-1-1v-5.4c0-0.6,0.4-1,1-1s1,0.4,1,1v5.4C29.7,21.6,29.2,22.1,28.7,22.1z"/>
			</g>
			<g id="Path_92">
				<path class="st1" d="M28.7,12.9c-0.6,0-1-0.4-1-1V4.4c0-3,2.4-5.4,5.4-5.4s5.4,2.4,5.4,5.4c0,0.6-0.4,1-1,1s-1-0.4-1-1
					C36.6,2.5,35,1,33.1,1c-1.9,0-3.4,1.5-3.4,3.4v7.5C29.7,12.5,29.2,12.9,28.7,12.9z"/>
			</g>
			<g id="Path_93">
				<path class="st1" d="M18.8,28c-0.6,0-1-0.4-1-1c0-1.6-1.2-3-2.9-3.1c-0.6,0-1-0.5-0.9-1.1c0-0.6,0.5-1,1.1-0.9
					c2.7,0.2,4.7,2.4,4.7,5.1C19.8,27.5,19.3,28,18.8,28z"/>
			</g>
			<g id="Path_94">
				<path class="st1" d="M18.8,28C18.8,28,18.8,28,18.8,28c-0.6,0-1-0.4-1-1c0-2.5,1.8-4.6,4.2-5.1c0.5-0.1,1.1,0.3,1.2,0.8
					c0.1,0.5-0.3,1.1-0.8,1.2c-1.5,0.3-2.6,1.6-2.6,3.1C19.8,27.5,19.3,28,18.8,28z"/>
			</g>
			<g id="Line_106">
				<path class="st1" d="M18.8,32.4c-0.6,0-1-0.4-1-1V27c0-0.6,0.4-1,1-1s1,0.4,1,1v4.5C19.8,32,19.3,32.4,18.8,32.4z"/>
			</g>
		</g>
	</g>
	<g class="st3">
		<path d="M262.8,5314h-1.3v-3.7l-3.2-6h1.4l2.4,4.9l2.4-4.9h1.4l-3.1,6V5314z"/>
		<path d="M267.8,5313c-0.7-0.7-1.1-1.7-1.1-2.9s0.4-2.1,1.1-2.9s1.7-1.1,2.8-1.1c1.1,0,2,0.4,2.8,1.1s1.1,1.7,1.1,2.9
			s-0.4,2.1-1.2,2.9c-0.8,0.7-1.7,1.1-2.8,1.1S268.5,5313.8,267.8,5313z M270.5,5313.1c0.7,0,1.3-0.3,1.9-0.8
			c0.5-0.5,0.8-1.2,0.8-2.1c0-0.9-0.3-1.6-0.8-2.1c-0.5-0.5-1.1-0.8-1.8-0.8c-0.7,0-1.3,0.3-1.8,0.8c-0.5,0.5-0.7,1.2-0.7,2.1
			s0.2,1.6,0.7,2.1C269.2,5312.8,269.8,5313.1,270.5,5313.1z"/>
		<path d="M281.5,5306.3h1.3v7.7h-1.3v-1.2c-0.5,0.9-1.3,1.4-2.5,1.4c-0.8,0-1.6-0.3-2.1-0.8s-0.9-1.4-0.9-2.4v-4.6h1.3v4.4
			c0,0.8,0.2,1.4,0.6,1.8s0.9,0.6,1.5,0.6s1.2-0.2,1.5-0.6s0.6-1,0.6-1.8V5306.3z"/>
	</g>
	<g id="Group_342" transform="translate(-99.044 5245.678)">
		<g id="Path_159" transform="translate(-3.466 -0.16)">
			<g>
				<path class="st6" d="M304.2,253.3v4.5h1.4l0,15.1h-1.1v18.1h1.1l0,9.4h2.3v-9.4h1.1V273h-1.1v-15.1h1.7v-4.5L304.2,253.3z"/>
			</g>
			<g>
				<path class="st4" d="M304.2,253.3l0,4.5l1.4,0l0,15.1l-1.1,0l0,18.1l1.1,0l0,9.4l2.3,0l0-9.4l1.1,0l0-18.1l-1.1,0l0-15.1l1.7,0
					l0-4.5L304.2,253.3 M304.2,251.3C304.2,251.3,304.2,251.3,304.2,251.3l5.5,0c1.1,0,2,0.9,2,2l0,4.5c0,1-0.8,1.9-1.7,2l0,11.3
					c0.7,0.3,1.1,1,1.1,1.8l0,18.1c0,0.5-0.2,1-0.6,1.4c-0.2,0.2-0.3,0.3-0.5,0.4l0,7.6c0,1.1-0.9,2-2,2l-2.3,0c0,0,0,0,0,0
					c-0.5,0-1-0.2-1.4-0.6c-0.4-0.4-0.6-0.9-0.6-1.4l0-7.6c-0.2-0.1-0.4-0.2-0.5-0.4c-0.4-0.4-0.6-0.9-0.6-1.4l0-18.1
					c0-0.5,0.2-1,0.6-1.4c0.2-0.2,0.3-0.3,0.5-0.4l0-11.4c-0.3-0.1-0.6-0.3-0.8-0.5c-0.4-0.4-0.6-0.9-0.6-1.4l0-4.5
					c0-0.5,0.2-1,0.6-1.4C303.1,251.5,303.6,251.3,304.2,251.3z"/>
			</g>
		</g>
		<g id="Line_155">
			<path class="st4" d="M305.8,292.6h-4.2c-0.6,0-1-0.4-1-1s0.4-1,1-1h4.2c0.6,0,1,0.4,1,1S306.3,292.6,305.8,292.6z"/>
		</g>
		<g id="Line_156">
			<path class="st4" d="M305.2,273.1h-3.9c-0.6,0-1-0.4-1-1s0.4-1,1-1h3.9c0.6,0,1,0.4,1,1S305.7,273.1,305.2,273.1z"/>
		</g>
		<g id="Line_157">
			<path class="st4" d="M305.2,259.4h-3.8c-0.6,0-1-0.4-1-1s0.4-1,1-1h3.8c0.6,0,1,0.4,1,1S305.7,259.4,305.2,259.4z"/>
		</g>
		<g id="Line_158">
			<path class="st4" d="M300.3,289.4c-0.6,0-1-0.4-1-1c0-0.6,0.4-1,1-1l3,0h0c0.6,0,1,0.4,1,1c0,0.6-0.4,1-1,1L300.3,289.4
				L300.3,289.4z"/>
		</g>
		<g id="Line_159">
			<path class="st4" d="M303.3,286.1L303.3,286.1l-3,0c-0.6,0-1-0.4-1-1c0-0.6,0.4-1,1-1h0l3,0c0.6,0,1,0.4,1,1
				C304.3,285.6,303.9,286.1,303.3,286.1z"/>
		</g>
		<g id="Line_160">
			<path class="st4" d="M303.3,282.8C303.3,282.8,303.3,282.8,303.3,282.8l-3,0c-0.6,0-1-0.4-1-1c0-0.6,0.4-1,1-1c0,0,0,0,0,0l3,0
				c0.6,0,1,0.4,1,1C304.3,282.4,303.9,282.8,303.3,282.8z"/>
		</g>
		<g id="Line_161">
			<path class="st4" d="M303.3,279.5h-3c-0.6,0-1-0.4-1-1s0.4-1,1-1h3c0.6,0,1,0.4,1,1S303.9,279.5,303.3,279.5z"/>
		</g>
		<g id="Line_162">
			<path class="st4" d="M303.3,276.2h-3c-0.6,0-1-0.4-1-1s0.4-1,1-1h3c0.6,0,1,0.4,1,1S303.9,276.2,303.3,276.2z"/>
		</g>
		<g id="Line_163">
			<path class="st4" d="M294.3,256.5c-0.6,0-1-0.4-1-1s0.4-1,1-1l5,0c0.6,0,1,0.4,1,1s-0.4,1-1,1L294.3,256.5z"/>
		</g>
		<g id="Path_160">
			<path class="st4" d="M294.7,254.3c0.7,0.7,0.7,1.7,0,2.4c-0.7,0.7-1.7,0.7-2.4,0c-0.7-0.7-0.7-1.7,0-2.4
				C293,253.7,294.1,253.7,294.7,254.3C294.7,254.3,294.7,254.3,294.7,254.3z"/>
		</g>
		<g id="Group_341" transform="translate(314.368 252.747)">
			<g id="Path_161" transform="translate(-323.523 -261.997)">
				<g>
					<path class="st6" d="M328.4,285.6l1.4,21.8c0,1.5-1.3,2.7-2.8,2.7c-1.5,0-2.6-1.2-2.7-2.7l1.4-21.8L328.4,285.6z"/>
				</g>
				<g>
					<path class="st4" d="M325.8,285.6l-1.4,21.8c0,1.5,1.2,2.7,2.7,2.7c0,0,0,0,0,0c0,0,0,0,0,0c1.5,0,2.7-1.2,2.7-2.7l-1.4-21.8
						L325.8,285.6 M325.8,283.6C325.8,283.6,325.8,283.6,325.8,283.6l2.6,0c1.1,0,1.9,0.8,2,1.9l1.4,21.8c0,0,0,0.1,0,0.1
						c0,2.6-2.1,4.7-4.7,4.7h0c-1.3,0-2.4-0.5-3.3-1.4c-0.9-0.9-1.4-2.1-1.4-3.3c0,0,0-0.1,0-0.1l1.4-21.8
						C323.9,284.5,324.8,283.6,325.8,283.6z"/>
				</g>
			</g>
			<g id="Line_164">
				<path class="st4" d="M3.6,23L3.6,23c-0.6,0-1-0.4-1-1l0-13.4c0-0.6,0.4-1,1-1l0,0c0.6,0,1,0.4,1,1l0,13.4
					C4.6,22.6,4.1,23,3.6,23z"/>
			</g>
			<g id="Path_162" transform="translate(-323.178 -252.747)">
				<g>
					<path class="st6" d="M324.2,258.9c1.4,1.4,3.7,1.4,5.1,0c1.4-1.4,1.4-3.7,0-5.1s-3.7-1.4-5.1,0c0,0,0,0,0,0
						C322.8,255.2,322.8,257.5,324.2,258.9z"/>
				</g>
				<g>
					<path class="st4" d="M326.8,259.9c0.9,0,1.8-0.3,2.5-1c1.4-1.4,1.4-3.7,0-5.1c-0.7-0.7-1.6-1-2.5-1c-0.9,0-1.8,0.3-2.5,1
						c-1.4,1.4-1.4,3.7,0,5.1C324.9,259.6,325.8,259.9,326.8,259.9 M326.8,261.9C326.8,261.9,326.8,261.9,326.8,261.9
						c-1.5,0-2.9-0.6-3.9-1.6c-2.2-2.2-2.2-5.7,0-7.9c1.1-1.1,2.5-1.6,3.9-1.6c1.5,0,2.9,0.6,3.9,1.6c1.1,1.1,1.6,2.5,1.6,3.9
						c0,1.5-0.6,2.9-1.6,3.9C329.6,261.3,328.2,261.9,326.8,261.9z"/>
				</g>
			</g>
			<g id="Line_165">
				<path class="st4" d="M1.6,27.7c-0.6,0-1-0.4-1-1c0-0.6,0.4-1,1-1l4,0c0.6,0,1,0.4,1,1c0,0.6-0.4,1-1,1L1.6,27.7z"/>
			</g>
		</g>
	</g>
</g>
</svg>
