<?xml version="1.0" encoding="utf-8"?>
<!-- Generator: Adobe Illustrator 22.0.0, SVG Export Plug-In . SVG Version: 6.00 Build 0)  -->
<svg version="1.1" id="Layer_1" xmlns="http://www.w3.org/2000/svg" xmlns:xlink="http://www.w3.org/1999/xlink" x="0px" y="0px"
	 viewBox="0 0 535 97.1" style="enable-background:new 0 0 535 97.1;" xml:space="preserve">
<style type="text/css">
	.st0{fill:#010101;}
</style>
<path class="st0" d="M66.8,56V43.9c0-7.8-3.9-9.6-15.2-10.1v-0.3c11.4-0.5,15.2-2.4,15.2-10V12.9C66.8,4.4,61.4,0,53.5,0H0v68.7
	h53.5C62.5,68.7,66.8,63.2,66.8,56z M47.2,55.5c0,2.9-0.8,4.4-3.5,4.4H20.2V38.4h23.5c2.7,0,3.5,1.4,3.5,4.5V55.5z M47.2,25.2
	c0,2.9-0.8,4.4-3.5,4.4H20.2V8.8h23.5c2.7,0,3.5,1.4,3.5,4.5V25.2z"/>
<path class="st0" d="M96.6,38.4h15l11.8,30.3h21l-11.9-30c7.2-1,10.6-4.7,10.6-11.4V12.8C143.2,5.3,138.9,0,129.9,0H76.4v68.7h20.2
	C96.6,68.7,96.6,38.4,96.6,38.4z M96.6,8.8h23.3c2.8,0,3.8,1.4,3.8,4.4V25c0,3.2-0.9,4.6-3.8,4.6H96.6V8.8z"/>
<path class="st0" d="M164.9,68.7h42.7c6.5,0,11.8-5.2,12-11.7V0h-9.2v57c0,2.2-1.3,2.9-3.2,2.9h-30.9c-1.9,0-3.2-0.8-3.2-2.9V0
	h-20.2v57C153,63.5,158.4,68.7,164.9,68.7z"/>
<polygon class="st0" points="273,29.2 297.1,0 285.4,0 268.1,21.4 254,0 230.1,0 254.8,37 218.3,82.5 0.6,82.5 0.6,97.1 220.4,97.1 
	229.8,82.5 229.8,82.5 260,44.9 284.8,82.5 284.7,82.5 294.2,97.1 451.4,97.1 451.4,82.5 308.6,82.5 "/>
<path class="st0" d="M319,68.7h41c9.2,0,13.5-5.2,13.5-13.5V13.5C373.5,5.2,369.2,0,360,0h-41c-9.2,0-13.5,5.2-13.5,13.5v41.7
	C305.5,63.5,309.8,68.7,319,68.7z M325.7,12.5c0-2.8,1.4-3.6,3.6-3.6h20.4c2.2,0,3.6,0.9,3.6,3.6v43.8c0,2.8-1.4,3.7-3.6,3.7h-20.4
	c-2.2,0-3.6-0.9-3.6-3.7V12.5z"/>
<path class="st0" d="M403.4,38.4h15l11.8,30.3h21l-11.9-30c7.3-0.9,10.7-4.7,10.7-11.3V12.8C450,5.3,445.7,0,436.7,0h-53.5v68.7
	h20.2L403.4,38.4L403.4,38.4z M403.4,8.8h23.3c2.8,0,3.8,1.4,3.8,4.4V25c0,3.2-0.9,4.6-3.8,4.6h-23.3V8.8z"/>
<g>
	<path d="M453.7,8c0-4.5,3.7-8,8.1-8s8,3.4,8,8s-3.7,8-8,8C457.4,16,453.7,12.6,453.7,8z M468.3,8c0-3.8-2.8-6.7-6.5-6.7
		s-6.5,2.9-6.5,6.7s2.8,6.7,6.5,6.7C465.4,14.7,468.3,11.8,468.3,8z M460.2,12.7h-1.4V3.4h3.5c2.1,0,3.2,0.9,3.2,2.6
		s-1.1,2.4-2.3,2.6l2.5,4.1H464l-2.5-4.1h-1.4L460.2,12.7L460.2,12.7z M460.2,7.4h1.5c1.7,0,2.4-0.2,2.4-1.5c0-0.9-0.6-1.4-2-1.4
		h-1.9V7.4z"/>
</g>
<g>
	<path d="M490.5,11.4c-0.6,0.7-1.4,1.3-2.5,1.7s-2.4,0.6-3.8,0.6h-3.7v8.8H476V0.3h8.2c2.6,0,4.5,0.6,5.9,1.9
		c1.4,1.3,2.1,2.8,2.1,4.5C492.2,8.5,491.6,10,490.5,11.4z M480.5,10.2h3.7c1.1,0,2-0.3,2.6-0.9c0.6-0.6,0.9-1.4,0.9-2.4
		c0-1-0.3-1.8-0.9-2.4c-0.6-0.6-1.4-0.9-2.6-0.9h-3.7V10.2z"/>
	<path d="M498.8,13.6v8.8h-4.5V0.3h8.2c2.6,0,4.5,0.6,5.9,1.9c1.4,1.3,2.1,2.9,2.1,4.7c0,1.4-0.4,2.7-1.3,3.9c-0.8,1.2-2.2,2-4,2.5
		l5.6,9.1h-5.3l-5.3-8.8H498.8z M498.8,3.7v6.5h3.7c1.1,0,2-0.3,2.6-0.9c0.6-0.6,0.9-1.4,0.9-2.4c0-1-0.3-1.8-0.9-2.4
		c-0.6-0.6-1.4-0.9-2.6-0.9H498.8z"/>
	<path d="M523.7,22.7c-3.2,0-5.9-1.1-8.1-3.2c-2.2-2.1-3.3-4.9-3.3-8.1s1.1-6,3.3-8.1c2.2-2.1,4.9-3.2,8.1-3.2c3.2,0,5.9,1.1,8,3.2
		c2.2,2.1,3.3,4.9,3.3,8.1s-1.1,6-3.3,8.1C529.6,21.6,526.9,22.7,523.7,22.7z M528.6,16.6c1.2-1.3,1.9-3.1,1.9-5.3
		c0-2.2-0.6-4-1.9-5.3c-1.2-1.3-2.9-2-4.9-2s-3.6,0.7-4.9,2c-1.3,1.3-1.9,3.1-1.9,5.3s0.6,3.9,1.9,5.3s2.9,2,4.9,2
		S527.4,17.9,528.6,16.6z"/>
</g>
</svg>
