<svg xmlns="http://www.w3.org/2000/svg" viewBox="0 0 61.8 40.6">
  <defs>
    <style>
      .a {
        fill: #37847f;
      }
    </style>
  </defs>
  <title>free-shipping</title>
  <g>
    <path class="a" d="M61.2,29.9,55,22.4H45.9V13.9H21a8.6,8.6,0,0,0-8.5,8.5.9.9,0,0,0,1,1,1,1,0,0,0,1-1A6.6,6.6,0,0,1,21,15.9H43.9V35.5a.9.9,0,0,0,1,1,1,1,0,0,0,1-1V24.4H54l5.8,6.9,3.4,2.3V45.3H45.9v-4a1,1,0,0,0-1-1,.9.9,0,0,0-1,1v4H14.5v-6a1.1,1.1,0,0,0-1-1,1,1,0,0,0-1,1V52.1h9a4.5,4.5,0,0,0,8.1,0H49.3a4.6,4.6,0,0,0,4,2.5,4.5,4.5,0,0,0,4-2.5h7.9V32.5ZM14.5,50.1V47.3h7.3a4.3,4.3,0,0,0-.9,2.6.3.3,0,0,0,.1.2Zm11.1,2.5a2.7,2.7,0,1,1,0-5.3,2.7,2.7,0,0,1,0,5.3Zm4.6-2.5v-.2a5,5,0,0,0-.8-2.6H49.5a5,5,0,0,0-.8,2.6v.2Zm23.1,2.5a2.7,2.7,0,0,1,0-5.3,2.7,2.7,0,0,1,0,5.3Zm9.9-2.5H57.9v-.2a5,5,0,0,0-.8-2.6h6.1Z" transform="translate(-3.3 -13.9)"/>
    <path class="a" d="M7.6,27.6H25.3a1.1,1.1,0,0,0,1-1,1,1,0,0,0-1-1H7.6a.9.9,0,0,0-1,1A1,1,0,0,0,7.6,27.6Z" transform="translate(-3.3 -13.9)"/>
    <path class="a" d="M20.5,31a1,1,0,0,0-1-1H4.3a1,1,0,0,0-1,1,1.1,1.1,0,0,0,1,1H19.5A1.1,1.1,0,0,0,20.5,31Z" transform="translate(-3.3 -13.9)"/>
    <path class="a" d="M26.6,35.2a1.1,1.1,0,0,0-1-1H6.1a1,1,0,0,0-1,1,.9.9,0,0,0,1,1H25.6A1,1,0,0,0,26.6,35.2Z" transform="translate(-3.3 -13.9)"/>
  </g>
</svg>
