<svg xmlns="http://www.w3.org/2000/svg" viewBox="0 0 109 109">
  <defs>
    <style>
      .a {
        fill: #fff;
      }

      .b {
        fill: #37847f;
      }
    </style>
  </defs>
  <title>impression-tray</title>
  <rect class="a" width="109" height="109" rx="19" ry="19"/>
  <g>
    <path class="b" d="M34.9,49.9A19.6,19.6,0,0,0,47,68v4.3a7.5,7.5,0,0,0,15,0V68A19.6,19.6,0,0,0,74.1,49.9V32.3a7,7,0,0,0-7-7,7,7,0,0,0-7.1,7V49.9a5.5,5.5,0,1,1-11,0V37.6a1,1,0,0,0-1-1,.9.9,0,0,0-1,1V49.9a7.6,7.6,0,0,0,6.5,7.5v10a1,1,0,0,0,2,0v-10A7.6,7.6,0,0,0,62,49.9V32.3a5,5,0,0,1,5.1-5,5,5,0,0,1,5,5V49.9A17.8,17.8,0,0,1,62,65.9V63.6a15.7,15.7,0,0,0,8.1-13.7V33a.9.9,0,0,0-1-1,1,1,0,0,0-1,1V49.9a13.7,13.7,0,0,1-7.5,12.2l-.6.2v10a5.5,5.5,0,0,1-11,0v-10l-.6-.2a13.7,13.7,0,0,1-7.5-12.2,1,1,0,0,0-1-1,.9.9,0,0,0-1,1A15.7,15.7,0,0,0,47,63.6v2.3a17.8,17.8,0,0,1-10.1-16V32.3a5.1,5.1,0,0,1,2-4V44.4a1,1,0,0,0,1,1,1.1,1.1,0,0,0,1-1v-17h1a5,5,0,0,1,5.1,5,.9.9,0,0,0,1,1,1,1,0,0,0,1-1,7,7,0,0,0-7.1-7,7,7,0,0,0-7,7Z"/>
    <path class="b" d="M41.1,82.4H27.6a1,1,0,0,0-1,1,1.1,1.1,0,0,0,1,1H41.1a1,1,0,0,0,1-1A.9.9,0,0,0,41.1,82.4Z"/>
    <path class="b" d="M41.1,85.9H27.6a1.1,1.1,0,0,0-1,1,1,1,0,0,0,1,1H41.1a.9.9,0,0,0,1-1A1,1,0,0,0,41.1,85.9Z"/>
    <path class="b" d="M82.4,17.2H44.3a1,1,0,0,0-1,1,1.1,1.1,0,0,0,1,1H82.4c1.2,0,2.3,1.5,2.3,3.4V86.4c0,1.9-1.1,3.4-2.3,3.4H26.6c-1.2,0-2.3-1.5-2.3-3.4V22.6c0-1.9,1.1-3.4,2.3-3.4h7.6a1.1,1.1,0,0,0,1-1,1,1,0,0,0-1-1H26.6c-2.3,0-4.3,2.4-4.3,5.4V86.4c0,3,2,5.4,4.3,5.4H82.4c2.3,0,4.3-2.4,4.3-5.4V22.6C86.7,19.6,84.7,17.2,82.4,17.2Z"/>
    <path class="b" d="M71,82.9v4a1,1,0,0,0,1,1,.9.9,0,0,0,1-1v-4a.9.9,0,0,0-1-1A1,1,0,0,0,71,82.9Z"/>
    <path class="b" d="M76.2,86.9v-4a1,1,0,0,0-1-1,.9.9,0,0,0-1,1v4a.9.9,0,0,0,1,1A1,1,0,0,0,76.2,86.9Z"/>
    <path class="b" d="M79.3,86.9v-4a.9.9,0,0,0-1-1,1,1,0,0,0-1,1v4a1,1,0,0,0,1,1A.9.9,0,0,0,79.3,86.9Z"/>
    <path class="b" d="M82.5,86.9v-4a1,1,0,0,0-1-1,.9.9,0,0,0-1,1v4a.9.9,0,0,0,1,1A1,1,0,0,0,82.5,86.9Z"/>
  </g>
</svg>
