<svg xmlns="http://www.w3.org/2000/svg" viewBox="0 0 57.4 47.6">
  <defs>
    <style>
      .a {
        fill: #37847f;
      }
    </style>
  </defs>
  <title>premium-quality</title>
  <path class="a" d="M55.4,10.7H13.1l-7.6,12L34.2,58.4,63,22.7ZM33.3,23.6V52.2l-13-28.6Zm2,0H48.6L35.2,52.3Zm.8-2,5.5-8.1,5.5,8.1Zm13.4,0-6-8.9H53.7Zm-15.3-.7-5.5-8.2h11Zm-1.9.7h-11l5.5-8.1ZM30,49.9,8.9,23.6H18ZM55.2,14.2l5.3,8.4L38.6,49.7Zm-41-1.5H24.9l-5.8,8.6-1.9-4.1a1,1,0,0,0-1.3-.5,1.1,1.1,0,0,0-.5,1.4L17,21.6H8.6Z" transform="translate(-5.5 -10.7)"/>
</svg>
