<svg xmlns="http://www.w3.org/2000/svg" viewBox="0 0 44.6 51.1">
  <defs>
    <style>
      .a {
        fill: #37847f;
      }
    </style>
  </defs>
  <title>guarantee</title>
  <g>
    <path class="a" d="M39.4,35.4a4.4,4.4,0,0,1-1.3,3.2,5.2,5.2,0,0,1-3.4,1.6c-.2.1-.4.2-.4.4v1.7H32.9V40.6c0-.2-.1-.3-.4-.4a5.8,5.8,0,0,1-3.2-1.3,3.8,3.8,0,0,1-1.4-2.6.4.4,0,0,1,.4-.4h1.6c.2,0,.4.1.4.3a3.7,3.7,0,0,0,.7,1.4,3.1,3.1,0,0,0,1.4.7c.3.1.5-.1.5-.4V32.7c0-.2-.1-.4-.3-.4a9.8,9.8,0,0,1-3.1-1.2,3.5,3.5,0,0,1-1.4-1.9,7.7,7.7,0,0,1-.2-1.5,4.5,4.5,0,0,1,1.4-3.3,5.6,5.6,0,0,1,3.2-1.5.4.4,0,0,0,.4-.4V20.9h1.4v1.6a.4.4,0,0,0,.4.4,5.9,5.9,0,0,1,3,1.3,4.4,4.4,0,0,1,1.4,2.5.5.5,0,0,1-.4.5H37c-.2,0-.3-.2-.4-.4a3,3,0,0,0-.6-1.1,3.9,3.9,0,0,0-1.7-.9v5.6c0,.2.1.4.3.4a7.6,7.6,0,0,1,3.7,1.6A4.4,4.4,0,0,1,39.4,35.4Zm-8.5-9.8a2.3,2.3,0,0,0-.8,2,2.1,2.1,0,0,0,.7,1.8,5.3,5.3,0,0,0,1.5.8.4.4,0,0,0,.6-.4V25.3c0-.3-.2-.5-.5-.4A2.6,2.6,0,0,0,30.9,25.6Zm5.5,11.8a2.4,2.4,0,0,0,.8-1.9,2.1,2.1,0,0,0-.7-1.8,6,6,0,0,0-1.6-.8.4.4,0,0,0-.6.4v4.6c0,.3.2.5.5.4A2.4,2.4,0,0,0,36.4,37.4Z" transform="translate(-12 -8.7)"/>
    <path class="a" d="M40.6,59.8a1.3,1.3,0,0,1-1.1-.5l-5.6-6-5.9,6a1.5,1.5,0,0,1-2.2,0l-5.5-6-5.8,5.6a1.6,1.6,0,0,1-1.6.3,1.5,1.5,0,0,1-.9-1.4V13.5a4.8,4.8,0,0,1,4.8-4.8H39.7a.9.9,0,0,1,1,1,1,1,0,0,1-1,1H16.8A2.8,2.8,0,0,0,14,13.5V56.6l5.3-5.1a1,1,0,0,1,1-.4,1.6,1.6,0,0,1,1.1.5l5.5,6,5.9-6.1a1.5,1.5,0,0,1,1.1-.4,1.6,1.6,0,0,1,1.1.5l5.6,6,6.7-6.2a1.5,1.5,0,0,1,2.1.1l5.1,5.1V13.5a2.8,2.8,0,0,0-2.8-2.8H47.5a1.1,1.1,0,0,1-1-1,1,1,0,0,1,1-1h4.2a4.8,4.8,0,0,1,4.8,4.8V57.8a1.5,1.5,0,0,1-.9,1.4,1.4,1.4,0,0,1-1.6-.4l-5.7-5.6-6.7,6.2A1.3,1.3,0,0,1,40.6,59.8Zm-20-6.9Zm12.9,0Zm14.5,0Z" transform="translate(-12 -8.7)"/>
  </g>
</svg>
