<svg xmlns="http://www.w3.org/2000/svg" viewBox="0 0 40.5 52.2">
  <defs>
    <style>
      .a {
        fill: #37847f;
      }
    </style>
  </defs>
  <title>safe-to-use</title>
  <g>
    <path class="a" d="M35.4,44.8a2.4,2.4,0,0,0,2,.9c1.9,0,4.7-1.7,6.3-16.5a10.7,10.7,0,0,0,.1-2.5,6.5,6.5,0,0,0-2.4-12.6,6.7,6.7,0,0,0-6.6,6.6c0,.3.1.6.1,1a8.2,8.2,0,0,1-3.3-.4c-2.5-.6-4.3-.4-5.5.6s-2,3.6-1.6,7.3V30a1.1,1.1,0,0,0,1,.9h.1a1,1,0,0,0,.9-1.2v-.8c-.3-2.8,0-4.7.9-5.5s1.9-.6,3.7-.1a11.8,11.8,0,0,0,3,.4h1.4a6.7,6.7,0,0,0,5.9,3.6h.4a10.3,10.3,0,0,1-.1,1.7c-1.6,14.4-4,14.8-4.3,14.8s-.4,0-.5-.2a2,2,0,0,1-.1-.9c.3-1.1,1.3-6.9-.6-9.2a2.6,2.6,0,0,0-2.1-.9,2.9,2.9,0,0,0-2.1.9c-1.8,2.3-.8,8.1-.6,9.2s.1.8-.1.9-.3.2-.5.2-1.9-.2-3.4-8.3a1,1,0,0,0-1.9.3c1.2,6.9,2.9,10,5.3,10a2.7,2.7,0,0,0,2.1-.9,3.4,3.4,0,0,0,.5-2.6c-.6-2.8-.7-6.4.2-7.5a.8.8,0,0,1,1.1,0c.8,1.1.7,4.7.2,7.5A2.7,2.7,0,0,0,35.4,44.8Zm1.4-24.1a4.7,4.7,0,0,1,4.6-4.6,4.6,4.6,0,0,1,4.5,4.6,4.5,4.5,0,0,1-4.5,4.5A4.6,4.6,0,0,1,36.8,20.7Z" transform="translate(-14 -8.2)"/>
    <path class="a" d="M42.6,18.8l-2,2-.6-.5a1,1,0,1,0-1.4,1.4l2,1.9L44,20.2a1,1,0,0,0-1.4-1.4Z" transform="translate(-14 -8.2)"/>
    <path class="a" d="M52.2,8.2H16.3A2.2,2.2,0,0,0,14,10.4V39.5a7.2,7.2,0,0,0,2.2,5.1L31.5,59.2a4.6,4.6,0,0,0,3,1.1,4.2,4.2,0,0,0,2.9-1.2l4.8-4.6a1,1,0,1,0-1.4-1.4L36,57.7a2.2,2.2,0,0,1-3.1,0L17.6,43.1A5,5,0,0,1,16,39.5V10.4c0-.1.1-.2.3-.2H52.2c.2,0,.3.1.3.2V39.5A5.1,5.1,0,0,1,51,43.1l-6.1,5.8a1,1,0,0,0,0,1.4,1.1,1.1,0,0,0,1.4.1l6.1-5.9a7.1,7.1,0,0,0,2.1-5V10.4A2.2,2.2,0,0,0,52.2,8.2Z" transform="translate(-14 -8.2)"/>
  </g>
</svg>
